<svg xmlns="http://www.w3.org/2000/svg" width="60" height="58.51" viewBox="0 0 60 58.51">
	<g id="그룹_131" data-name="그룹 131" transform="translate(-319.31 -622.44)">
	  <g id="그룹_114" data-name="그룹 114" transform="translate(319.31 622.44)">
		<path id="패스_364" data-name="패스 364" d="M379.31,633.065v37.261a10.6,10.6,0,0,1-10.621,10.625H329.935a10.6,10.6,0,0,1-10.625-10.625V633.065a10.6,10.6,0,0,1,10.625-10.625h38.754a10.6,10.6,0,0,1,10.621,10.625Zm-2.524,36.287V634.009a9.069,9.069,0,0,0-9.072-9.072H330.879a9.088,9.088,0,0,0-9.072,9.1v35.312a9.094,9.094,0,0,0,9.072,9.1h36.865a8.666,8.666,0,0,0,6.361-2.617A9.022,9.022,0,0,0,376.786,669.351Z" transform="translate(-319.31 -622.44)" fill="#d392ff"/>
		<path id="패스_365" data-name="패스 365" d="M380.979,638.2v35.342a9.022,9.022,0,0,1-2.68,6.485,8.666,8.666,0,0,1-6.361,2.617H335.072a9.094,9.094,0,0,1-9.072-9.1V638.232a9.088,9.088,0,0,1,9.072-9.1h36.836a9.069,9.069,0,0,1,9.072,9.072Zm-8.922,20.884a11.728,11.728,0,0,0,.217-2.621,10.769,10.769,0,0,0-.7-3.729,7.278,7.278,0,0,0-2.3-3.2,6.537,6.537,0,0,0-4.245-1.292,7.071,7.071,0,0,0-6.164,3.117,12.789,12.789,0,0,0-2.176,7.5,13.987,13.987,0,0,0,.881,5.01,8.123,8.123,0,0,0,2.845,3.759,8.691,8.691,0,0,0,5.223,1.43,11.237,11.237,0,0,0,4.961-.944.481.481,0,0,0,.273-.485v-3.106a.2.2,0,0,0-.09-.2.23.23,0,0,0-.213.015,10.113,10.113,0,0,1-4.021.791,4.994,4.994,0,0,1-4.092-1.538,6.27,6.27,0,0,1-1.3-4.032l6.455.03a26.674,26.674,0,0,0,4.11-.183.361.361,0,0,0,.332-.332Zm-16.68,9.587c.183,0,.243-.1.183-.3L347.7,641.793a.448.448,0,0,0-.075-.2.307.307,0,0,0-.2-.045h-5.208c-.119,0-.183.078-.183.243-.041.59-.075,1.019-.1,1.292a2.663,2.663,0,0,1-.168.717l-6.97,24.5q-.062.213,0,.291a.3.3,0,0,0,.243.075h3.621a.408.408,0,0,0,.258-.06.339.339,0,0,0,.108-.213l1.949-7.369h7.914l2.038,7.4a.382.382,0,0,0,.4.243Z" transform="translate(-323.503 -626.633)" fill="#19003e"/>
		<path id="패스_366" data-name="패스 366" d="M422.382,696.624v3.106a.481.481,0,0,1-.273.485,11.237,11.237,0,0,1-4.961.944,8.692,8.692,0,0,1-5.223-1.43,8.123,8.123,0,0,1-2.845-3.759,13.987,13.987,0,0,1-.881-5.01,12.789,12.789,0,0,1,2.176-7.5,7.071,7.071,0,0,1,6.164-3.117,6.537,6.537,0,0,1,4.245,1.292,7.278,7.278,0,0,1,2.3,3.2,10.77,10.77,0,0,1,.7,3.729,11.728,11.728,0,0,1-.217,2.621.361.361,0,0,1-.332.332,26.674,26.674,0,0,1-4.11.183l-6.455-.03a6.27,6.27,0,0,0,1.3,4.032,4.994,4.994,0,0,0,4.092,1.538,10.113,10.113,0,0,0,4.021-.791.23.23,0,0,1,.213-.015A.2.2,0,0,1,422.382,696.624Zm-2.86-8.676a.547.547,0,0,0,.03-.153,5.4,5.4,0,0,0-.273-1.583,3.706,3.706,0,0,0-.959-1.553,2.709,2.709,0,0,0-1.964-.668,2.936,2.936,0,0,0-2.636,1.266,6.329,6.329,0,0,0-.989,2.968h6.3a1.6,1.6,0,0,0,.459-.034A.919.919,0,0,1,419.523,687.948Z" transform="translate(-375.016 -658.725)" fill="#d392ff"/>
		<path id="패스_367" data-name="패스 367" d="M427.161,693.924a.546.546,0,0,1-.03.153.919.919,0,0,0-.03.243,1.6,1.6,0,0,1-.459.034h-6.3a6.33,6.33,0,0,1,.989-2.968,2.936,2.936,0,0,1,2.636-1.266,2.709,2.709,0,0,1,1.964.668,3.706,3.706,0,0,1,.959,1.553A5.4,5.4,0,0,1,427.161,693.924Z" transform="translate(-382.623 -664.854)" fill="#19003e"/>
		<path id="패스_368" data-name="패스 368" d="M370.279,689.219c.06.2,0,.3-.183.3h-4.051a.382.382,0,0,1-.4-.243l-2.038-7.4H355.7l-1.949,7.369a.34.34,0,0,1-.108.213.408.408,0,0,1-.258.06h-3.621a.3.3,0,0,1-.243-.075q-.062-.078,0-.291l6.97-24.5a2.662,2.662,0,0,0,.168-.717c.03-.273.063-.7.1-1.292,0-.164.063-.243.183-.243h5.208a.306.306,0,0,1,.2.045.448.448,0,0,1,.075.2Zm-10.565-11.327h2.923q-.364-1.462-.974-3.681-.577-2.133-1.127-4.293t-.881-3.625h-.06q-.823,4.049-2.344,9.591-.274,1.036-.549,2.008h3.013Z" transform="translate(-338.222 -647.482)" fill="#d392ff"/>
		<path id="패스_369" data-name="패스 369" d="M374.746,684.429H368.81q.274-.974.549-2.008,1.518-5.538,2.344-9.591h.06q.336,1.462.881,3.625t1.127,4.293Q374.382,682.966,374.746,684.429Z" transform="translate(-350.331 -654.018)" fill="#19003e"/>
	  </g>
	</g>
  </svg>
  