<svg xmlns="http://www.w3.org/2000/svg" width="53.135" height="75" viewBox="0 0 53.135 75">
	<g id="그룹_123" data-name="그룹 123" transform="translate(-441.783 -109)">
	  <path id="패스_314" data-name="패스 314" d="M446.619,283.288l-4.836-54.016h53.135l-4.841,54.007-21.759,6.008Z" transform="translate(0 -105.288)" fill="#e44d26"/>
	  <path id="패스_315" data-name="패스 315" d="M658.573,317.528l17.875-4.956,4.206-47.113H658.573Z" transform="translate(-190.665 -138.216)" fill="#f16529"/>
	  <path id="패스_316" data-name="패스 316" d="M539.423,333.428h-8.949l-.618-6.925h9.567V319.74H522.465l.162,1.814,1.662,18.636h15.134Z" transform="translate(-70.87 -185.072)" fill="#ebebeb"/>
	  <path id="패스_317" data-name="패스 317" d="M554.362,518.443l-.03.008-7.532-2.034-.482-5.394H539.53l.947,10.619,13.853,3.846.031-.009Z" transform="translate(-85.844 -352.948)" fill="#ebebeb"/>
	  <path id="패스_318" data-name="패스 318" d="M482.123,109h3.437v3.4H488.7V109h3.437v10.282H488.7v-3.443H485.56v3.443h-3.437V109Z" transform="translate(-35.314)"/>
	  <path id="패스_319" data-name="패스 319" d="M577.542,112.41h-3.025V109h9.49v3.41H580.98v6.873h-3.437V112.41Z" transform="translate(-116.525)"/>
	  <path id="패스_320" data-name="패스 320" d="M662.769,109h3.584l2.2,3.613,2.2-3.613h3.585v10.282h-3.423v-5.1l-2.365,3.656H668.5l-2.366-3.656v5.1h-3.363Z" transform="translate(-194.027)"/>
	  <path id="패스_321" data-name="패스 321" d="M769.4,109h3.438v6.884h4.833v3.4H769.4Z" transform="translate(-287.686)"/>
	  <path id="패스_322" data-name="패스 322" d="M658.385,429.6v6.763h8.328l-.785,8.771-7.543,2.036v7.036l13.864-3.842.1-1.143,1.589-17.8.165-1.816h-15.72Z" transform="translate(-190.239 -281.626)" fill="#fff"/>
	  <path id="패스_323" data-name="패스 323" d="M658.385,319.74V326.5H674.72l.136-1.52.308-3.428.162-1.814Z" transform="translate(-190.259 -184.956)" fill="#fff"/>
	</g>
  </svg>
  