<svg xmlns="http://www.w3.org/2000/svg" width="60" height="58.51" viewBox="0 0 60 58.51">
	<g id="그룹_130" data-name="그룹 130" transform="translate(-73.38 -622.44)">
	  <g id="그룹_110" data-name="그룹 110" transform="translate(73.38 622.44)">
		<path id="패스_354" data-name="패스 354" d="M133.38,633.065v37.261a10.6,10.6,0,0,1-10.625,10.625H84A10.6,10.6,0,0,1,73.38,670.326V633.065A10.6,10.6,0,0,1,84,622.44h38.751a10.6,10.6,0,0,1,10.625,10.625Zm-2.527,36.287V634.009a9.062,9.062,0,0,0-9.072-9.072H84.949a9.088,9.088,0,0,0-9.072,9.1v35.312a9.094,9.094,0,0,0,9.072,9.1h36.862a8.675,8.675,0,0,0,6.365-2.617A9.034,9.034,0,0,0,130.853,669.351Z" transform="translate(-73.38 -622.44)" fill="#37c5ff"/>
		<path id="패스_355" data-name="패스 355" d="M135.045,638.2v35.342a9.034,9.034,0,0,1-2.677,6.485A8.675,8.675,0,0,1,126,682.645H89.142a9.094,9.094,0,0,1-9.072-9.1V638.232a9.088,9.088,0,0,1,9.072-9.1h36.832a9.062,9.062,0,0,1,9.072,9.072Zm-11.11,24.841a5.921,5.921,0,0,0-1.172-3.64,11.372,11.372,0,0,0-4.185-3.028,10.568,10.568,0,0,1-2.636-1.676,1.924,1.924,0,0,1-.594-1.307,1.859,1.859,0,0,1,.612-1.3,2.915,2.915,0,0,1,2.128-.624,8.637,8.637,0,0,1,4.536,1.187c.265.019.4-.082.4-.306v-3.528a.916.916,0,0,0-.045-.291.586.586,0,0,0-.2-.258,10.912,10.912,0,0,0-4.689-.7,7.281,7.281,0,0,0-5.279,1.811,6.114,6.114,0,0,0-.657,8.067,11.238,11.238,0,0,0,4.021,2.819,9.416,9.416,0,0,1,2.572,1.7,2.177,2.177,0,0,1,.653,1.4,1.824,1.824,0,0,1-.7,1.463,3.531,3.531,0,0,1-2.251.579,10.254,10.254,0,0,1-5.2-1.553c-.205-.1-.306-.03-.306.213v3.834a.821.821,0,0,0,.03.243.288.288,0,0,0,.183.153,10.252,10.252,0,0,0,5.3,1.157,8.521,8.521,0,0,0,5.357-1.643A5.666,5.666,0,0,0,123.935,663.042Zm-16.971-8.3a10.4,10.4,0,0,0-.866-11.827q-2.318-2.621-7.7-2.621-3.869,0-6.7.123a.913.913,0,0,0-.381.09c-.134.063-.2.146-.2.246v27.973c0,.224.09.317.273.276H95.38c.265,0,.366-.093.306-.276V658.719c.343,0,.627.007.851.03.265.019.668.03,1.217.03a14.175,14.175,0,0,0,5.342-.974A8.428,8.428,0,0,0,106.964,654.747Z" transform="translate(-77.572 -626.633)" fill="#28253a"/>
		<path id="패스_356" data-name="패스 356" d="M174.834,683.318c0,.224-.131.325-.4.306a8.637,8.637,0,0,0-4.536-1.187,2.915,2.915,0,0,0-2.128.624,1.859,1.859,0,0,0-.612,1.3,1.924,1.924,0,0,0,.594,1.307,10.567,10.567,0,0,0,2.636,1.676,11.372,11.372,0,0,1,4.185,3.028,5.921,5.921,0,0,1,1.172,3.64,5.666,5.666,0,0,1-2.132,4.779,8.521,8.521,0,0,1-5.357,1.643,10.252,10.252,0,0,1-5.3-1.157.288.288,0,0,1-.183-.153.821.821,0,0,1-.03-.243v-3.834c0-.243.1-.314.306-.213a10.254,10.254,0,0,0,5.2,1.553,3.531,3.531,0,0,0,2.251-.579,1.824,1.824,0,0,0,.7-1.463,2.177,2.177,0,0,0-.653-1.4,9.416,9.416,0,0,0-2.572-1.7,11.238,11.238,0,0,1-4.021-2.819,6.114,6.114,0,0,1,.657-8.067,7.281,7.281,0,0,1,5.279-1.811,10.912,10.912,0,0,1,4.689.7.586.586,0,0,1,.2.258.916.916,0,0,1,.045.291Z" transform="translate(-129.386 -657.597)" fill="#37c5ff"/>
		<path id="패스_357" data-name="패스 357" d="M126.958,668.092a9.3,9.3,0,0,1-1.445,5.406,8.428,8.428,0,0,1-3.868,3.057,14.175,14.175,0,0,1-5.342.974c-.549,0-.952-.011-1.217-.03-.224-.022-.508-.03-.851-.03v10.012c.06.183-.041.276-.306.276h-3.987c-.183.041-.273-.052-.273-.276V659.509c0-.1.063-.183.2-.246a.913.913,0,0,1,.381-.09q2.828-.123,6.7-.123,5.387,0,7.7,2.621A9.349,9.349,0,0,1,126.958,668.092Zm-4.655.093a4.653,4.653,0,0,0-1.463-3.744,6.084,6.084,0,0,0-4.077-1.251c-1.015,0-1.848.034-2.5.093v10.046c.3.019.6.03.9.03H116.4a8.151,8.151,0,0,0,4.1-1.034Q122.3,671.289,122.3,668.185Z" transform="translate(-96.122 -645.383)" fill="#37c5ff"/>
		<path id="패스_358" data-name="패스 358" d="M128.554,671.391a4.653,4.653,0,0,1,1.463,3.744q0,3.1-1.811,4.14a8.151,8.151,0,0,1-4.1,1.034h-1.236c-.291,0-.594-.011-.9-.03V670.233c.65-.06,1.482-.093,2.5-.093A6.084,6.084,0,0,1,128.554,671.391Z" transform="translate(-103.837 -652.333)" fill="#28253a"/>
	  </g>
	</g>
  </svg>
  