<svg xmlns="http://www.w3.org/2000/svg" width="72.847" height="54.631" viewBox="0 0 72.847 54.631">
	<path id="패스_386" data-name="패스 386" d="M-103.043,187.927a15.084,15.084,0,0,0-6.6,1.53,13.914,13.914,0,0,1-1.477-3.42,9.182,9.182,0,0,1-.133-2.874,25.46,25.46,0,0,1,.865-3.1c-.013-.133-.16-.758-1.623-.772s-2.728.28-2.874.665a16.009,16.009,0,0,0-.612,2.169c-.253,1.331-2.927,6.081-4.457,8.569a9.234,9.234,0,0,1-1.011-2.5,9.181,9.181,0,0,1-.133-2.874,25.568,25.568,0,0,1,.865-3.1c-.013-.133-.16-.758-1.623-.772s-2.728.28-2.874.665-.306,1.291-.612,2.169-3.858,8.808-4.79,10.857c-.479,1.051-.891,1.89-1.184,2.462h0a.591.591,0,0,1-.053.106c-.253.492-.4.758-.4.758v.013c-.2.359-.413.692-.519.692a4.457,4.457,0,0,1,.027-2.262c.532-2.754,1.8-7.039,1.783-7.185,0-.08.239-.825-.825-1.211a1.321,1.321,0,0,0-1.5.253c-.093,0-.16.226-.16.226s1.158-4.817-2.209-4.817c-2.1,0-5,2.3-6.44,4.377-.9.492-2.834,1.543-4.9,2.674-.785.439-1.6.878-2.355,1.291-.053-.053-.106-.12-.16-.173-4.071-4.351-11.6-7.425-11.283-13.266.12-2.129.851-7.717,14.463-14.5,11.2-5.522,20.118-3.992,21.662-.6,2.209,4.843-4.777,13.838-16.353,15.142-4.418.492-6.733-1.211-7.318-1.849-.612-.665-.705-.705-.931-.572-.373.2-.133.8,0,1.144a6.832,6.832,0,0,0,4.178,3.286c2.129.692,7.3,1.078,13.572-1.344,7.012-2.714,12.494-10.259,10.884-16.579-1.61-6.413-12.254-8.529-22.327-4.95-5.988,2.129-12.481,5.482-17.151,9.846-5.549,5.189-6.427,9.7-6.067,11.589,1.291,6.706,10.538,11.071,14.237,14.3-.186.106-.359.2-.506.279-1.849.918-8.9,4.6-10.658,8.5-2,4.417.319,7.584,1.85,8.01,4.75,1.317,9.633-1.051,12.254-4.963s2.3-8.995,1.091-11.323a.278.278,0,0,0-.053-.08c.479-.279.971-.572,1.45-.852.945-.559,1.876-1.078,2.675-1.5a17.547,17.547,0,0,0-.945,4.843c-.2,2.5.825,5.748,2.169,7.026a2.4,2.4,0,0,0,1.756.572c1.57,0,2.275-1.3,3.06-2.847.958-1.89,1.823-4.085,1.823-4.085s-1.078,5.934,1.85,5.934c1.064,0,2.142-1.384,2.621-2.089v.013s.027-.04.08-.133l.173-.279v-.027c.426-.745,1.384-2.435,2.808-5.242,1.836-3.619,3.606-8.143,3.606-8.143a23.1,23.1,0,0,0,.705,2.941,27.692,27.692,0,0,0,1.517,3.406c-.426.6-.692.931-.692.931l.013.013c-.346.452-.719.944-1.131,1.424a42.489,42.489,0,0,0-3.42,4.284,1.163,1.163,0,0,0,.32,1.57,2.9,2.9,0,0,0,1.783.293,8.181,8.181,0,0,0,2.675-.612,8.981,8.981,0,0,0,2.3-1.211,5.151,5.151,0,0,0,2.209-4.537,9.166,9.166,0,0,0-.838-3.207c.133-.186.253-.373.386-.559a60.979,60.979,0,0,0,3.992-6.893,23.15,23.15,0,0,0,.705,2.941,19.694,19.694,0,0,0,1.291,2.927,12.644,12.644,0,0,0-3.885,5.016c-.838,2.421-.186,3.513,1.051,3.765a3.707,3.707,0,0,0,1.943-.4,8.845,8.845,0,0,0,2.462-1.264c1.424-1.051,2.794-2.515,2.714-4.5a8.5,8.5,0,0,0-.612-2.661,13.933,13.933,0,0,1,7.065-.811c6.334.745,7.584,4.7,7.345,6.36a4.208,4.208,0,0,1-2.009,2.847c-.439.279-.586.373-.546.572.053.293.266.279.639.226a4.947,4.947,0,0,0,3.446-4.4c.2-3.912-3.526-8.183-10.112-8.143ZM-151.9,204.4c-2.1,2.288-5.03,3.153-6.294,2.421-1.357-.785-.825-4.165,1.756-6.586a33.537,33.537,0,0,1,4.936-3.685c.306-.186.758-.453,1.3-.785.093-.053.146-.08.146-.08h0l.319-.2A9.088,9.088,0,0,1-151.9,204.4Zm15.3-10.405c-.732,1.783-2.262,6.347-3.193,6.094-.8-.213-1.291-3.672-.16-7.092a16.113,16.113,0,0,1,2.488-4.564c1.144-1.277,2.408-1.7,2.714-1.184.386.679-1.4,5.628-1.85,6.746Zm12.627,6.041c-.306.16-.6.266-.732.186-.093-.053.133-.266.133-.266s1.583-1.7,2.209-2.475c.359-.452.785-.985,1.238-1.583v.173c0,2.036-1.969,3.406-2.847,3.965Zm9.74-2.222c-.226-.16-.186-.692.572-2.355a8.861,8.861,0,0,1,2.169-2.794,3.758,3.758,0,0,1,.213,1.224,4.025,4.025,0,0,1-2.954,3.925Z" transform="translate(165.769 -156.521)" fill="#cd6799"/>
  </svg>
  