<svg xmlns="http://www.w3.org/2000/svg" xmlns:xlink="http://www.w3.org/1999/xlink" width="53.541" height="75" viewBox="0 0 53.541 75">
	<defs>
	  <linearGradient id="linear-gradient" x1="0.5" y1="1" x2="0.5" gradientUnits="objectBoundingBox">
		<stop offset="0.387" stop-color="#d4d5d5" stop-opacity="0"/>
		<stop offset="1" stop-color="#d4d5d5"/>
	  </linearGradient>
	  <linearGradient id="linear-gradient-3" y1="0.5" x2="1" y2="0.5" gradientUnits="objectBoundingBox">
		<stop offset="0" stop-color="#eaeae8"/>
		<stop offset="1" stop-color="#fff"/>
	  </linearGradient>
	</defs>
	<g id="그룹_122" data-name="그룹 122" transform="translate(-1641 -4944)">
	  <g id="그룹_100" data-name="그룹 100" transform="translate(1641 4944)">
		<path id="패스_324" data-name="패스 324" d="M301.82,209.654l-21.751,5.857-21.751-5.857L253.3,155.277H306.84Z" transform="translate(-253.3 -140.51)" fill="#004798"/>
		<path id="패스_325" data-name="패스 325" d="M420.942,182.859v51.158l.049.013,17.6-4.74,4.063-46.431Z" transform="translate(-394.172 -163.688)" fill="#1e8ace"/>
		<g id="그룹_97" data-name="그룹 97" transform="translate(10.884 0)">
		  <path id="패스_326" data-name="패스 326" d="M325,69.58V66.343h4.722V62.8H321.46v10.01h8.264V69.58Z" transform="translate(-321.46 -62.802)" fill="#1a1311"/>
		  <path id="패스_327" data-name="패스 327" d="M400.287,66.343h3.3V62.8h-8.264v3.541c1.106,1.106,1.682,1.635,3.281,3.234l-3.281,0v3.231h8.264V69.58Z" transform="translate(-383.529 -62.802)" fill="#1a1311"/>
		  <path id="패스_328" data-name="패스 328" d="M473.637,66.343h3.3V62.8h-8.265v3.541c1.106,1.106,1.683,1.635,3.282,3.234l-3.282,0v3.231h8.265V69.58Z" transform="translate(-445.165 -62.802)" fill="#1a1311"/>
		</g>
		<g id="그룹_99" data-name="그룹 99" transform="translate(9.781 25.823)">
		  <path id="패스_329" data-name="패스 329" d="M338.9,231.461l-15.568,6.484.516,6.419,15.051-6.435,16.011-6.845.664-6.566Z" transform="translate(-321.928 -224.516)" fill="#fff"/>
		  <path id="패스_330" data-name="패스 330" d="M323.33,274.488l.516,6.419,15.051-6.435V268Z" transform="translate(-321.928 -261.06)" fill="url(#linear-gradient)"/>
		  <path id="패스_331" data-name="패스 331" d="M437.5,224.516l-16.675,6.944v6.467l16.011-6.845Z" transform="translate(-403.852 -224.516)" fill="url(#linear-gradient)"/>
		  <path id="패스_332" data-name="패스 332" d="M323.48,308.607l.517,6.419,23.094.074-.516,8.559-7.6,2.14-7.305-1.845-.443-5.312h-6.788l.885,10.256,13.724,4.058,13.65-3.984,1.771-20.363Z" transform="translate(-322.054 -295.179)" fill="url(#linear-gradient-3)"/>
		  <g id="그룹_98" data-name="그룹 98" transform="translate(1.402 13.428)" opacity="0.05">
			<path id="패스_333" data-name="패스 333" d="M338.9,308.607H323.33l.516,6.419,15.051.048Z" transform="translate(-323.33 -308.607)" fill="#1a1311"/>
			<path id="패스_334" data-name="패스 334" d="M343.946,378.581l-.074.021-7.3-1.844-.443-5.312h-6.788l.885,10.256,13.723,4.058Z" transform="translate(-328.378 -361.411)" fill="#1a1311"/>
		  </g>
		  <path id="패스_335" data-name="패스 335" d="M314.551,224.516H348.2l-.664,6.566H315.363Z" transform="translate(-314.551 -224.516)" fill="url(#linear-gradient-3)"/>
		  <path id="패스_336" data-name="패스 336" d="M331.521,224.516h-16.97l.812,6.566h16.158Z" transform="translate(-314.551 -224.516)" fill="#1a1311" opacity="0.05"/>
		</g>
	  </g>
	</g>
  </svg>
  