<svg xmlns="http://www.w3.org/2000/svg" width="82" height="34.25" viewBox="0 0 82 34.25">
	<g id="그룹_127" data-name="그룹 127" transform="translate(-67.5 -173.774)">
	  <path id="패스_350" data-name="패스 350" d="M257.591,214.5c-1.8,0-3.137.883-3.137,3.008,0,1.6.882,2.712,3.04,2.712a2.762,2.762,0,0,0,3.071-2.778,2.679,2.679,0,0,0-2.974-2.941Zm-3.6,15a2.9,2.9,0,0,0-.849,1.732c0,1.306,1.666,1.7,3.954,1.7,1.9,0,4.477-.133,4.477-1.9,0-1.048-1.242-1.113-2.812-1.211l-4.77-.325Zm9.673-14.9a5.183,5.183,0,0,1,1.209,3.3c0,3.627-2.844,5.751-6.96,5.751a10.4,10.4,0,0,1-2.582-.294l-1.079,1.732,3.2.2c5.654.36,8.987.524,8.987,4.869,0,3.759-3.3,5.882-8.987,5.882-5.915,0-8.17-1.5-8.17-4.085,0-1.471.654-2.254,1.8-3.334a2.177,2.177,0,0,1-1.438-2.155,2.929,2.929,0,0,1,.948-1.994c.588-.62,1.241-1.242,2.026-1.961a5.219,5.219,0,0,1-2.81-4.9c0-3.758,2.484-6.338,7.483-6.338a11.212,11.212,0,0,1,3.007.327h6.373v2.777l-3.007.229" transform="translate(-140.949 -29.073)" fill="#362701"/>
	  <path id="패스_351" data-name="패스 351" d="M337.732,179.592a2.684,2.684,0,0,1-2.941-2.943,2.959,2.959,0,0,1,5.915,0A2.694,2.694,0,0,1,337.732,179.592Zm-4.216,19.639v-2.58l1.667-.228c.458-.066.523-.164.523-.655V186.16c0-.359-.1-.589-.425-.686l-1.764-.621.359-2.646h6.765v13.561c0,.524.032.589.523.655l1.667.228v2.58h-9.315" transform="translate(-206.253 0)" fill="#362701"/>
	  <path id="패스_352" data-name="패스 352" d="M386.818,208.7a13.073,13.073,0,0,1-5.328,1.306c-3.889,0-5.359-1.567-5.359-5.261v-8.561c0-.2,0-.327-.263-.327h-2.287v-2.908c2.877-.328,4.02-1.766,4.379-5.328h3.1v4.642c0,.228,0,.327.262.327h4.607v3.267h-4.869v7.81c0,1.928.458,2.68,2.222,2.68a7.781,7.781,0,0,0,2.647-.523l.883,2.877" transform="translate(-237.318 -10.735)" fill="#362701"/>
	  <path id="패스_353" data-name="패스 353" d="M101.079,189.481,86.135,174.54a2.2,2.2,0,0,0-3.116,0l-3.1,3.1,3.936,3.936a2.617,2.617,0,0,1,3.314,3.337l3.794,3.794a2.619,2.619,0,1,1-1.571,1.478l-3.538-3.538v9.31a2.619,2.619,0,1,1-2.156-.076v-9.4a2.587,2.587,0,0,1-.859-.572,2.622,2.622,0,0,1-.565-2.867l-3.88-3.881L68.146,189.412a2.2,2.2,0,0,0,0,3.118l14.942,14.942a2.2,2.2,0,0,0,3.117,0L101.078,192.6a2.206,2.206,0,0,0,0-3.118" transform="translate(0 -0.093)" fill="#f03c2e"/>
	</g>
  </svg>
  