<svg id="레이어_1" data-name="레이어 1" xmlns="http://www.w3.org/2000/svg" viewBox="0 0 512 512"><path d="M50.28,422c10.56,0,20.38,3.73,20.38,6.65,0,1.8-2.29,6.19-3.68,6.19a34.58,34.58,0,0,0-16.59-4.64c-18.83,0-24.9,10.91-24.9,29.49,0,16.33,5,30.18,23.9,30.18a60.13,60.13,0,0,0,13.7-1.39V467H50.64c-1.5,0-2.14-.95-2.14-3.13v-1.8c0-2.24.64-3.14,2.14-3.14H69.37c2.24,0,3.13,1,3.13,3.14v28.29c0,6-11.55,7.68-23.78,7.68-21.22,0-32.92-12-32.92-37.31C15.72,434.08,28,422,50.28,422Z" style="fill:#262626"/><path d="M83.46,457.84a63.18,63.18,0,0,0-1.22-13.45c0-2.05,4.38-2.54,5.77-2.54,2.49,0,3.14,4.28,3.74,7a16.08,16.08,0,0,1,12.36-8c4.13,0,6.13,1.75,6.13,4.14s-.85,5.77-2.14,5.77a26.83,26.83,0,0,0-5.89-1.09c-5.54,0-10,6.52-10,6.52v39.06c0,1.54-1.24,2.39-4.28,2.39h-.35c-3,0-4.28-.85-4.28-2.39V457.84Z" style="fill:#262626"/><path d="M139.39,440.85c14.55,0,22,9.66,22,27.79,0,1.25-2.25,4.39-3.5,4.39H124.15c.9,11.8,5.93,17.23,16.49,17.23a33.9,33.9,0,0,0,15.79-4.53c1.49,0,3.74,4.13,3.74,5.28,0,2.49-8.42,6.78-19.24,6.78-17.68,0-26.1-9.07-26.1-28.15S123.06,440.85,139.39,440.85Zm12.37,24.91c0-11.21-4.23-16.89-12.8-16.89-9.32,0-14.2,5.71-15,16.89Z" style="fill:#262626"/><path d="M194.69,440.85c14.54,0,22,9.66,22,27.79,0,1.25-2.25,4.39-3.49,4.39H179.49c.85,11.8,5.87,17.23,16.44,17.23a33.94,33.94,0,0,0,15.59-4.53c1.49,0,3.81,4.13,3.81,5.28,0,2.49-8.42,6.78-19.24,6.78-17.73,0-26.15-9.07-26.15-28.15S178.31,440.85,194.69,440.85Zm12.54,24.91c0-11.21-4.28-16.89-12.8-16.89-9.31,0-14.19,5.71-14.94,16.89Z" style="fill:#262626"/><path d="M226.36,457.84a60.74,60.74,0,0,0-1.29-13.45c0-2.05,4.43-2.54,5.77-2.54,2.54,0,3.14,4.28,3.8,7a23.35,23.35,0,0,1,16.39-8,15.87,15.87,0,0,1,17.51,14.07h0a16.14,16.14,0,0,1,0,3.26V495.1c0,1.54-1.25,2.38-4.24,2.38h-.4c-3,0-4.28-.84-4.28-2.38V458.84a9.66,9.66,0,0,0-8.9-10.37,8.73,8.73,0,0,0-2,.09A18,18,0,0,0,235.24,456v39c0,1.55-1.29,2.4-4.28,2.4h-.34c-3,0-4.23-.85-4.23-2.4Z" style="fill:#262626"/><path d="M287.69,479.31c1.91,0,7.17,5,15.7,5,4.53,0,10-1.35,10-7.77,0-12.56-30.78-7.68-30.78-32.78,0-15.74,12.79-21.88,25.25-21.88,11.3,0,19.22,3.89,19.22,7.38s-3.18,9-5.83,9a33.74,33.74,0,0,0-11.8-2.63c-8.27,0-10,3.88-10,6.27,0,12.2,30.78,7.32,30.78,32.34,0,17.68-12.45,23.61-24.1,23.61-16.25,0-24.91-5.79-24.91-9.42S285.38,479.31,287.69,479.31Z" style="fill:#88ce02"/><path d="M362.44,440.71c17,0,25.75,10.2,25.75,28.69s-8.76,28.73-25.75,28.73-25.9-10-25.9-28.73S345.65,440.71,362.44,440.71Zm10,28.69c0-10.72-3-16.24-10-16.24s-10,5.52-10,16.24,3.14,16.33,10,16.33,9.8-5.71,9.8-16.33Z" style="fill:#88ce02"/><path d="M422.51,440.71c7.52,0,17.73,2.54,17.73,7.42,0,2-3.94,8.17-5.71,8.17a8.17,8.17,0,0,1-1.9-.75,18.7,18.7,0,0,0-9.27-2.39c-8.56,0-12.1,5.28-12.1,16.24s3.28,16.33,11.42,16.33a22.33,22.33,0,0,0,10.41-2.54,7.63,7.63,0,0,1,1.9-.6c2.39,0,5.53,6,5.53,8,0,6-15.22,7.42-18.58,7.42-18.23,0-26.9-9.32-26.9-28.4S403.38,440.71,422.51,440.71Z" style="fill:#88ce02"/><path d="M448.25,420.38c0-2.29,1.91-3.39,6.43-3.39h3c4.53,0,6.42,1.1,6.42,3.39v42.19h.4l12.91-19.32c1.29-1.75,3.43-2,6.57-2h3.88c4,0,6,.65,6,1.64a5,5,0,0,1-.95,2.15l-15,21.11,17.33,27.5a6.09,6.09,0,0,1,.91,2.29c0,1-1.91,1.59-6,1.59h-4.53c-3.14,0-5.43-.34-6.43-2L464.23,471h-.4v23c0,2.29-1.9,3.39-6.42,3.39h-3c-4.54,0-6.43-1.1-6.43-3.39V420.38Z" style="fill:#88ce02"/><circle cx="253.07" cy="209.7" r="168.79" style="fill:#262626"/><path d="M82,174.26A247.87,247.87,0,0,0,34.67,211c-6,7.33-7.77-4-1.53-22.53A122.85,122.85,0,0,1,71.51,135.8a400.65,400.65,0,0,1,55.78-33,557.07,557.07,0,0,1,85.2-29.35c3.3-.88-4,5.58-5.14,9.17-5.79,16.88-121.6,89.66-121.6,89.66Z"/><path d="M245,378.79c2.05,12,0,12.91-12.26,14.67a32.16,32.16,0,0,1-24.94-6.19,14,14,0,0,1-.67-16.22,38.06,38.06,0,0,0,5.13-10.28,25.75,25.75,0,0,1,2.86-7.32c.9-1.55,1.11-3.09,1.33-14s0-31.48,1.24-40.14,39.7,4,39.7,4-9.17,22.76-11.6,28.33a55.82,55.82,0,0,0-2.27,18.57,15.11,15.11,0,0,1-1.23,6.19c-.67,0,2.2,6,.88,9.31A43.4,43.4,0,0,0,245,378.79Z"/><path d="M259.75,37.75a74.42,74.42,0,0,1,1.76-27.88c5.57-7.34,35-8.52,41.32.44a38.94,38.94,0,0,1,2,19.37c-.44,6-2,19-2.21,23.19s-32.58,8.07-39.7-.44A48.3,48.3,0,0,1,259.75,37.75Z"/><path d="M325.36,357.13a144.85,144.85,0,0,0,30.95,15.2c6.89,3.51,5.12,10.42-6.46,12.47-9.4,1.76-24.07-1.84-33.91-1.84s-31.71,1.18-37.5-2.86a12.17,12.17,0,0,1-3.72-13.36A55.23,55.23,0,0,0,279.56,342a82.58,82.58,0,0,0-6.46-22c-3.29-8.21-5.79-28.48-2.64-29.36s2.21,0,6.19.88a64.74,64.74,0,0,0,17.17,2.28,131.06,131.06,0,0,0,21.66-2.05c3.29-.66,6-1.32,4.95,5.58A211.68,211.68,0,0,0,315.59,327a169.27,169.27,0,0,0,.43,23.62C316.84,352.43,321.77,354.63,325.36,357.13Z"/><path d="M277.58,60.06C253.07,81.19,205.52,87,135.06,114.15c-18,6.9-66,27.67-77.86,49.31,39-22.52,53.57,8.44,56.65,40.37,2.94,29.86,17.84,45.5,56.22,44.57s51.37,22,62.45,49c21.21-103.27,55.11-123.3,77-140.92C355.89,118.92,298.79,52.43,277.58,60.06Z" style="fill:#88ce02"/><path d="M277.58,60.06c-58.7,20.48-117,25.62-185.51,67.81-16.3,10-50.65,32.73-57.4,76.25,25-27.66,82.79-62.45,153.52-84.54,35.74-11.14,61.78-18.49,93.49-30.75C279.34,74.52,279.34,68.94,277.58,60.06Z" style="fill:#88ce02"/><path d="M352.73,182.25A37.18,37.18,0,0,1,340,201.48s-6.19,2.2-18.72-4.69a16.12,16.12,0,0,1-6-11.14,10.63,10.63,0,0,1,3.52-7.87s3.6-6,7.86-5.79,11.38.88,13.62-1.1S353.18,174.91,352.73,182.25Z"/><path d="M261.74,41.94a181.53,181.53,0,0,1-2.48,18.57c0,1.31-6.9,2-11.81,4C256.76,91.25,313.5,91,320.83,77.9a99.19,99.19,0,0,0-14.09-7.34c-3.3-1.33-3.09-1.1-3.3-7.34s-.66-17.83-1.23-21S267.08,38.85,261.74,41.94Z"/><path d="M264.22,41.94s0,6.53-.65,12.76a42.4,42.4,0,0,1-1,6.91,45.8,45.8,0,0,1,9.88,18.48c10.73,23.86,35.45,12,45.72.67a82.8,82.8,0,0,0-16.09-8.44c-3.31-1.33-1.76-4.26-2-10.5s-1.1-15.4-1.55-18.71S269.36,38.85,264.22,41.94Z" style="fill:#efefef"/><path d="M261.74,41.94a52,52,0,0,1-.9,8.72c3,2.94,6.69,6.91,9.62,9.4s6.9,1.55,11.38,1.55a26.77,26.77,0,0,0,9.1-.45,45.85,45.85,0,0,0,11.66-9.6,75.41,75.41,0,0,0-.73-9.62C301.65,38.85,267.08,38.85,261.74,41.94Z"/><path d="M282.06,58.88a49,49,0,0,1-8.29-.65,13.16,13.16,0,0,1-3.08-1.33c-1.55-1.1-3.16-2.47-5-3.81-3.6-2.64-3.82-4.18-3.82-4.84a101.68,101.68,0,0,0-.43-25.91s-1.55-6,6.89-7.34A109.75,109.75,0,0,1,282,13.16,70.28,70.28,0,0,1,295.61,15c8.52,1.54,6.89,7.34,6.89,7.34a106.47,106.47,0,0,0-.43,25.91c0,.66,0,2.2-3.71,4.84a25.79,25.79,0,0,1-8.08,5.14A48.06,48.06,0,0,1,282.06,58.88Z"/><path d="M282.06,7.15c-14.68,0-17.61,4-22,8.52a80.86,80.86,0,0,0,1.31,22h2.06A26.52,26.52,0,0,1,262.23,29c0-4.7,1.18-4.48.52-5.58s-2.72-3.52,1.31-5.8,10.28,1.84,17.84,2.06,14-4.26,18.05-2.06,2.21,4.49,1.33,5.8,0,.88.43,5.58a27,27,0,0,1-1.1,8.67h2.05a118.46,118.46,0,0,0,1.55-22C301,11.41,296.73,7.37,282.06,7.15Z"/><path d="M352.73,182.91a36.24,36.24,0,0,1-12.48,18.27c-1.76-.88-1.53-2.2-3.08-4.18-.51-.66-2.06-1.1-2.71-1.83s-.45-1.76-1.54-2.64-1.55,0-2.47-.88-1.11-2.06-1.76-2.72-2.21-.66-2.65-1.11-10.93-3.08-10.49-5.34a20.23,20.23,0,0,1,2.64-5.81s4.26-6.19,8.52-6,8.22,1.1,10.48-.88S353.39,175.79,352.73,182.91Z"/><path d="M323.75,84.35a27.54,27.54,0,0,1,23.62,5.81,25.23,25.23,0,0,1,6,28.1,21.37,21.37,0,0,1,3.6,20.48c14.67,12.54,8.29,31.7-4.95,44A17.35,17.35,0,0,0,336.4,170.5c.52-4.47-11.6-8-6-19.58-8.44-2.06-8.22-7.86-9.54-14.68S323.75,84.35,323.75,84.35Z"/><path d="M318.61,90.54s16.29-8.22,25.9,1.1a22.45,22.45,0,0,1,4,26.79,21.63,21.63,0,0,1,4.63,21c-.67,2.2-5.59,2.2-9.1,8,8.87-5.14,14.67-3.82,16.5,2.65,3.08,10.05-3.81,22-9.83,28.83v-.73a33.4,33.4,0,0,1-8.93,16.65,8.38,8.38,0,0,1-9.77,2.27,56.66,56.66,0,0,1-12.25-6.45c-3.59-2.06-1.61-4.49-1.61-6.47a4.28,4.28,0,0,1,1.1-2,21.86,21.86,0,0,1,3.81-5,9.49,9.49,0,0,1,7.35-3.72,16.71,16.71,0,0,0,9.83-1.84h0c0-7.78-8.88-8-5.8-21.36,0-.73,1.33-1.83,4.95-2.26a18.77,18.77,0,0,1-11.58-5,16.05,16.05,0,0,1-5.37-9.53C320.88,126.91,318.61,90.54,318.61,90.54Z" style="fill:#efefef"/><path d="M271.57,76.58a40.07,40.07,0,0,0-21.43-14.69c-3.72-1.1-6.19,2-10,4.26-1.18-.65-6.09-2.93-8.74-1.32A57.71,57.71,0,0,1,224.09,69a12.38,12.38,0,0,0-7.86.45,22.89,22.89,0,0,0-11.59,8.66C202,87.74,252,80.6,252,80.6Z"/><path d="M272,76.58c-7.33-2.48-6-10.73-22-12.11-3.09,0-5.14,2.28-7.34,3.81A15.68,15.68,0,0,1,245.58,73a18.89,18.89,0,0,0-9.16-5.79c-3.38-.66-5.59,1.76-9.18,3.6a21.25,21.25,0,0,1,2.27,3.08,9.22,9.22,0,0,0-9.32-1.1,24,24,0,0,0-12.69,9.39C204.79,91.69,252.56,81,252.56,81Z" style="fill:#88ce02"/><path d="M314,80.09a40.77,40.77,0,0,0,0-4.69c0-.45-1.76-1.54-1.76-2l-.44-.45a7,7,0,0,1,10.67,3.83c5.14-1.85,5.57,0,8,2.86,5.36-1.1,6,.88,9.39,5.79a40.08,40.08,0,0,0-11.82.67A18.57,18.57,0,0,1,314,80.09Z"/><path d="M313,79s1.4-1.1.88-1.32c2.47-1.33,5.86-2.94,7.34,1.32,5.13-1.77,5.79.66,8.22,3.37,6.19-2.93,6.67.67,7.34,2.2a50.89,50.89,0,0,0-8.89.66A20.83,20.83,0,0,1,313,79Z" style="fill:#88ce02"/><path d="M237.22,73.42a70.65,70.65,0,0,0,23.41,3.81c10.71-.88,29-1.83,38.82,4a38.13,38.13,0,0,1,19.37-1.1c9.4,2.48,26.57,18.5,21.43,35.46a12.54,12.54,0,0,1-6.67,4,23.53,23.53,0,0,1-1.33,13.87A70.67,70.67,0,0,0,322,167.06h0a90.72,90.72,0,0,1-1.1,10.93c-17.34-.65-44-7.34-70.57-6.67,0-2.87.43-4.7.65-7.34h.74c-1.39-7.34-1.84-11.14-3.15-16.74a73.8,73.8,0,0,1-25-23.41C216.23,111.8,237.22,73.42,237.22,73.42Z"/><path d="M323.25,193.85s13.87,49.52-2.47,70.3A29.38,29.38,0,0,1,317.63,284c-.89,4.46-2,8.5-2.65,12.91-2.93,18.57-7.85,26.34-9.17,56H292.55a143,143,0,0,0-6.31-33.24c-2.72-6.46-13.21-15.11-12.77-23.85.45-6.68,1.83-12.26,13.21-21.21.88-12.91-12-25.17-10.05-73.39Z"/><path d="M319.27,191.86c3.59,22.75,11.88,56.44-3.09,73a33.44,33.44,0,0,1,0,12.69,51.22,51.22,0,0,1-2.47,8.66,78.37,78.37,0,0,0-3.82,17.9,305.15,305.15,0,0,0-4.25,49H292.3a142.63,142.63,0,0,0-6.19-32.81c-2.72-6.46-8.29-12-8.74-20.7-.43-6.67,4.26-20.1,15.42-19.66-.66-26.94-13.14-22-16.52-77.79Z" style="fill:#efefef"/><path d="M237.22,73.42a53.8,53.8,0,0,0,10.28,2,134.15,134.15,0,0,0,16.29,0c10.71-.88,25.83-2,35.9,3.81a35.25,35.25,0,0,1,11.6-1.31,60.1,60.1,0,0,1,8.51,3.29c9.77,2.48,19.16,18.8,14.68,33.43-.44,1.1-3.51,0-7.34,1.1a29.38,29.38,0,0,1-2.48,17.92,64.93,64.93,0,0,0-7.82,36.13c-23.41-1.1-33.9-2.71-57.09-3.81a138.15,138.15,0,0,1-2.87-21,23.88,23.88,0,0,0,7.34-5.58,17.19,17.19,0,0,1-13.43-1.61,65.78,65.78,0,0,1-14.67-14c-.44-.43-2.93,6.91-8.52,7.35-2-2.86,6.47-11.15,5-14.24C226.69,105.4,237.22,73.42,237.22,73.42Z" style="fill:#efefef"/><path d="M321.1,173.38s.44,8,.44,10,1.76,9,2,12a50,50,0,0,1-32.58,17.47c-19.15,4-44.57-26.13-44.57-26.13.66-2.94,2.86-11.37,4.4-15.85a7.33,7.33,0,0,0,.74-2C253.52,166,321.1,173.38,321.1,173.38Z"/><path d="M316.18,174a64.61,64.61,0,0,0,1.55,13.14,118.43,118.43,0,0,1,2.94,14.68c0,12.91-17,10.71-31.28,11.14-19.15,4.26-35.47-25.45-35.47-25.45a120.44,120.44,0,0,1,4.26-15.86h0a47.62,47.62,0,0,1,.88-7.33c27.24,0,46.39,1.54,57.54,2.64a19.73,19.73,0,0,1-.44,7.34Z" style="fill:#efefef"/><path d="M294.78,202.8S283,176.46,247.52,184.23C239,208.15,227.63,235.6,235,265c-7.34,10-15.85,15.55-15.85,34.12a122.8,122.8,0,0,0,.89,22l26.12,1.32A79,79,0,0,0,258,299.67a49.12,49.12,0,0,0,1.1-16.3,17.71,17.71,0,0,0,5.14-10.48,50.51,50.51,0,0,0,20-23C291.24,235.09,289.39,222.39,294.78,202.8Z"/><path d="M294.78,202.8c-.66-2.47-9.61-26.56-42.56-19.45-19.45,51.37-12.38,73.39-9.4,82.57-13.16,16.72-19.18,20.23-16.54,54.15h17.39A51.33,51.33,0,0,0,254,286c0-.66-2.48,1.4-4.26,3.59,1.32-6.9,5.14-8.22,8.07-12.47a13.45,13.45,0,0,0,2.48-8.07A57.39,57.39,0,0,0,285,231.56C287.63,222.39,290.72,207,294.78,202.8Z" style="fill:#efefef"/><path d="M239.64,166.84a44.84,44.84,0,0,1,11.37,2,11.86,11.86,0,0,1,7.35,5.14c2,2.21,6.89,5.59,6,8.88-.44,1.83-1.53,2.28-3.15,3.82s-5.58,6-6.68,6.68l-2.2,1.53L249,197.22a10.61,10.61,0,0,1-6.19,1.55,14.76,14.76,0,0,1-9.32-3.89s-.43-1.77.45-2.65a34.69,34.69,0,0,1-6-6.67,11.56,11.56,0,0,1-.3-8.67C227.53,174.91,236.59,169.34,239.64,166.84Z"/><path d="M245.26,384l-.67,5.57s-2,2.48-17,2.2-19.15-5-20.48-7.34l-.87-6s2.85-4.26,3.52-4.26c5,.44,22,7.34,33.24,8.87C244.12,383.18,244.34,383.7,245.26,384Z"/><path d="M277.58,372.55v4.84c2.71,2.05,9.4,3.16,22,2.93,18.5-.44,35.67,5.59,56.67,2v-4h-2L280,372.25Z"/><path d="M293.54,380.32h5.58c12-.44,23.41,2.21,35.67,2.86,6.45,0,14.67-1.76,13.87-6.45l-63.34-5.36C281.84,375.63,284.7,379.22,293.54,380.32Z"/><path d="M221.15,286.38a65.41,65.41,0,0,0,37.71,8.3,48.29,48.29,0,0,1-10.05,27,71.76,71.76,0,0,0-10.05,35.44c0,3.52,2.28,6.68-.44,11.38.88,2.86,4.47,8.67,6.19,12.26s2.73,7.33-9.09,7.77-31.49-1.1-28.76-10.42c1.31-4.95,5.13-10.05,5.57-12.11a22.11,22.11,0,0,1,4.18-12A85.87,85.87,0,0,0,218,322.12C216.89,311.64,216.67,294.9,221.15,286.38Z"/><path d="M242.21,104.6c15.85-21.13,2.48-38.08-23-32.94a24.22,24.22,0,0,0-21.2,22c-3.3.45-10.93.88-14.67,14.69a31.61,31.61,0,0,1-9.62,18.08c-3.38,3.82,0,11.59,2.65,17.17,8.28,19.23,33.67,21,50.85,35.52a25.15,25.15,0,0,0,13.62-12.38c-14.67-17.17-11.37-23.84-17.17-32.73A28,28,0,0,0,242.21,104.6Z"/><path d="M238.76,103.29c.88-1.32,2.47-4.18,3.16-5.36s2.63,4,2.85,3.81c6-9.82,7.35-24.06.67-25.39a51.17,51.17,0,0,1-6.9-1.83,28,28,0,0,0-15.55,0,22,22,0,0,0-19.68,19.23,18.32,18.32,0,0,1,8.95,10.85c-3.36-4.61-9.17-9.75-16.09-5.27s-3.59,14.86-13.43,26.27c-3.3,3.81-2.86,8.3.74,17.17,5.82,14.09,33.19,22,48.16,35a19.8,19.8,0,0,0,7.79-7.77,81.06,81.06,0,0,1-17-27.46,44.8,44.8,0,0,0-15.34-19.15,38.17,38.17,0,0,1,8.89,4.46,9.06,9.06,0,0,0,7.32.67C233.19,125.21,238.32,111.8,238.76,103.29Z" style="fill:#efefef"/><path d="M335.78,106.81c-.67,8.44-6.89,4.26-10.2,2.65a52.76,52.76,0,0,0-21.21-4.95,114.67,114.67,0,0,0-26.56,2.93c-12,3.38-15.64,3.16-21.05.45a157.9,157.9,0,0,1-14.67-10.06,8,8,0,0,0,2,5.14,40.85,40.85,0,0,0,18.05,11.14,20,20,0,0,0,11.38-.44c19.88-5,40.85-5.8,58.7,5,.88.43,4-.89,5.36-3S335.78,106.81,335.78,106.81Z"/><path d="M234.36,191.86a46.28,46.28,0,0,1,6.45,3.71,5.12,5.12,0,0,1-2.93-.88A30.71,30.71,0,0,1,234.36,191.86Z" style="fill:#001423"/><path d="M298.79,15c-.66-2-5.57-5.57-17-5.57S266,13.16,265.75,15.24c0,.67-.89,7.79-1.11,10.73v8.86c0,3.59,1.11,5.57,1.54,10.28a24.82,24.82,0,0,0,4.28,12,10.08,10.08,0,0,0,3.09,1.55,42.86,42.86,0,0,0,16.51,0A11.89,11.89,0,0,0,296.25,50a109.77,109.77,0,0,0,2.06-10.94c.43-2.93.65-9.39.88-11.14A47.25,47.25,0,0,0,298.79,15Z" style="fill:#efefef"/><path d="M275.38,290.64s11.82,5.14,41,.67c0,0-8.22,41.53-4.49,62.22,0,0,3.82,5.36,31.93,15.64,0,0,12.48,3.16,12,9.39,0,0,.44,1.32-14.69.88s-29.35-3.15-39.48-3.15-20.68.44-22.53-2.48.45-9.61,3.38-13.62,2.21-7.34,2-14.68C283.82,325.43,268.71,305,275.38,290.64Z"/><path d="M272.89,294.47a38.63,38.63,0,0,0,2.48,18.93c2.2,8.29,7.34,13.21,8.22,26.79s1.32,15.19-2.48,23-4.95,14.67,8.22,15.19A216.83,216.83,0,0,1,323,380.1a77.57,77.57,0,0,0,25.46,1.55c7.34-1.1,8.88-3.53,5.8-5.81s-16.1-4.69-22-9.1S311.71,356,311.5,354.2a232.47,232.47,0,0,1,0-35c1.09-7.34,2.72-17.39,3.15-20s2.65-5.36-1.09-4.48a131.65,131.65,0,0,1-28.85,2.2A58.22,58.22,0,0,1,272.89,294.47Z" style="fill:#88ce02"/><path d="M280.52,363.66a35.55,35.55,0,0,0,13.61,3.16,21,21,0,0,0,.88,11.82c2.48,4.39-17.84,1.76-17.84,1.76l-.88-15.85Z" style="isolation:isolate;opacity:0.30000001192092896"/><path d="M339.59,382.53a5.58,5.58,0,0,0,4.22-6.66,5.71,5.71,0,0,0-1.06-2.22c-3.16-3.83-5.79-4.48-1.83-4.7a74.34,74.34,0,0,1,18.71,8.66l-7.35,7Z" style="isolation:isolate;opacity:0.30000001192092896"/><path d="M272.22,303.12a59.39,59.39,0,0,0,19.67,2.06,89.6,89.6,0,0,0,23.19-3.38c6.46-2.21,3.72,2.47,3.72,2.47l-3.52,3.31a63.23,63.23,0,0,1-22,3.14,76.12,76.12,0,0,1-21.22-2Z" style="isolation:isolate;opacity:0.30000001192092896"/><path d="M272.67,314.27a59.12,59.12,0,0,0,19.63,2.06,73.17,73.17,0,0,0,22-2.71c2.63-.88,1.1,2.93,1.1,2.93l-1.1,2a68.77,68.77,0,0,1-22,2.94,66.42,66.42,0,0,1-19.22-1.61Z" style="isolation:isolate;opacity:0.30000001192092896"/><path d="M275.38,290.64a84.33,84.33,0,0,0,41.25,2.28s-8.44,39.92-4.71,60.4c0,0,3.82,5.35,31.93,15.63,0,0,12.48,3.08,12,9.39,0,0,.44,1.33-14.69.88s-29.35-3.16-39.48-3.16-20.68.45-22.53-2.41.45-9.62,3.38-13.62,2.21-7.34,2-14.68C283.82,325.43,268.71,305,275.38,290.64Z" style="fill-opacity:0"/><path d="M275.38,290.64a85.77,85.77,0,0,0,41.25,2.06s-8.44,40.14-4.71,60.66c0,0,3.82,5.35,31.93,15.62,0,0,12.48,3.09,12,9.4,0,0,.44,1.32-14.69.88s-29.35-4.69-39.48-3.16-20.68,1.1-22.53-2.41a16.81,16.81,0,0,1,3.38-13.62c3.16-4.19,2.21-7.34,2-14.68C283.82,325.43,268.71,305,275.38,290.64Z" style="fill-opacity:0"/><path d="M258,158.19a75.77,75.77,0,0,0,26.89,12,138,138,0,0,0,32.81-.67l-.44,3.08a122.78,122.78,0,0,1-42.1-1.31c-18.34-4.95-16.29-6-16.29-6Z"/><path d="M220.71,348.18a36.66,36.66,0,0,0,18.49,2.48,203,203,0,0,1,2.48-22,136,136,0,0,0,12-34.34A142,142,0,0,1,228,289.17C220.93,310.75,223.42,329.48,220.71,348.18Z" style="fill:#efefef"/><path d="M235.68,362.27c1.54.44,2.64,2.21,3.08,1.1s-1.54-5.8-1.76-8.51h0a29.87,29.87,0,0,0-14.68-1.11c-1.54,2.94-4,2.48-4.84,8.3-.51,2.86,3.08.45,6.46,0-6,4-13,9.1-14.09,13.62-1.32,6.19.88,8.07,7.33,11.36a72.48,72.48,0,0,0,18.06,1.33c6-1.1,7.33-4,5.35-8A78.65,78.65,0,0,1,235.68,362.27Z" style="fill:#efefef"/><path d="M238.1,72.54a39.09,39.09,0,0,0,21.43,2.86c.88,0,9.83-1.54,10.28-1.32a3.46,3.46,0,0,1,.88.87,28.21,28.21,0,0,1-10.94,2.28A46.88,46.88,0,0,1,239.43,75C233.84,72.54,238.1,72.54,238.1,72.54Z"/><path d="M314,76.8a58.17,58.17,0,0,1,13.8,8c3.37,3.59,1.54,3.36.88,2.47a52.27,52.27,0,0,0-10.5-6.89,19.72,19.72,0,0,1-6.05-3.58C312.11,76.58,314,76.8,314,76.8Z"/><path d="M237,169.34a22,22,0,0,1,17.33,5.57c2.21,2.21,5.8,4.71,5.36,6.9a12.48,12.48,0,0,1-2.47,3.82c-.73.88-2.71,2.86-3.38,3.52l-4.69,3.6c-.66.43-1.55,1.54-2.21,1.76a7.76,7.76,0,0,1-6.89-.88c-2.28-1.1.43-1.32-2.06-3.08-6-4.26-9.32-7.34-6.9-15.42C231.42,173.59,233.84,171.75,237,169.34Z" style="fill:#efefef"/><path d="M180.13,118.26c-20.11,8-71.19,33.43-85.65,41.24h0c12,7.34,17.62,25.91,19.37,44l.66,5.14a31,31,0,0,0,.74,3.31,1.71,1.71,0,0,0,0,1c13.14-36,60.18-73.83,62-76.76.87-1.31-1.24-7.34,2-12.69C183.51,116.71,191.28,113.57,180.13,118.26Z" style="isolation:isolate;opacity:0.4000000059604645"/><path d="M227.53,286.6c10.27-20.47,10.5-40.13,10.27-63.13,0-9.54,6.9-23.19,3.38-19.38-13.43,14.68-47,43.08-71.4,44.57C204.19,247.64,217.63,264.82,227.53,286.6Z" style="isolation:isolate;opacity:0.4000000059604645"/><path d="M74.81,178.44a736.58,736.58,0,0,1,94.38-49c15.85-5.13,10.94-11.14,10.94-11.14A979.71,979.71,0,0,0,77.37,169.64"/><path d="M262.17,114.15c-5.06-2-9.1,4-7.78,9.83s13.36,12.26,12.69,33.43a61.11,61.11,0,0,1-4.18,24.51l-8.51-10.71s-1.32-24.08-4.25-27.67-12-10.13-15.27-13.51,4-7.77,3.53-14.09a64.34,64.34,0,0,1,3.81-18Z" style="isolation:isolate;opacity:0.4000000059604645"/><path d="M293.54,209a383.1,383.1,0,0,0,4.95,53.24c1.55,11.82,3.53,12.7,0,18.05S290.21,294,290.21,294l-15.34-1.33a148.67,148.67,0,0,0,12.91-18.57,164.9,164.9,0,0,0-6.19-25Z" style="isolation:isolate;opacity:0.4000000059604645"/><path d="M263.57,52.87A19.67,19.67,0,0,0,276.48,65c3.6,1.32,17.62,3.08,23.19-3.16,2.47-2.94.88-10.71.88-10.71L287.86,61.39l-17.17-3.16-2-5.14Z" style="isolation:isolate;opacity:0.4000000059604645"/><path d="M264.88,68.26a92.1,92.1,0,0,0,24.3,8.07c4,.88,10.49-4.26,13.62-5.57a13.63,13.63,0,0,1,15.79,3.51c.65.66-1.55,3.61-1.55,3.61a28.42,28.42,0,0,1-3.38-1.11,9.51,9.51,0,0,0-6-1.39c-11.14,1.39-12.91,5.13-22.74,2.93a62.14,62.14,0,0,0-22-3.59" style="fill:#88ce02;stroke:#000;stroke-linejoin:round;stroke-width:1.590000033378601px"/><path d="M262.9,68.94a194.84,194.84,0,0,0,25.61,7.34c4,.88,10.5-3.16,13.62-5.14a13.16,13.16,0,0,1,16.1,3.08c2.27,2.48,3.15,4,3.15,4.71s-2.71,0-2.71,0A29.45,29.45,0,0,1,314,77.16a11.49,11.49,0,0,0-6.31-2.06c-11.14,1.4-13.35,5.14-23,2.94a56.79,56.79,0,0,0-22-3.59" style="fill:#88ce02"/><path d="M228.27,277.28c-.44-.43.51-.88,0-.88a12.94,12.94,0,0,1-9.11-5.34c-9.61-13.88-23.62-23-49.09-22-38.09.88-53.23-14.67-56.22-44.57-1.53-16.29-6-32.19-15.11-41l-5.36,3.3c10.27,8.95,13.62,23.41,15.86,43.33,3.51,29.86,27.58,44,55.71,44,29.35.45,39.7,6.47,50.63,21.15a17.77,17.77,0,0,0,10.71,7.33Z"/><path d="M331.82,133.87a25.14,25.14,0,0,0,6,12.91c1.53,1.54,1.75,2,.43,2l-11.14-.44-2.71-4.84Z" style="isolation:isolate;opacity:0.4000000059604645"/></svg>