<svg xmlns="http://www.w3.org/2000/svg" width="60" height="58.51" viewBox="0 0 60 58.51">
	<g id="그룹_132" data-name="그룹 132" transform="translate(-73.38 -422.04)">
	  <g id="그룹_120" data-name="그룹 120" transform="translate(73.38 422.04)">
		<path id="패스_380" data-name="패스 380" d="M133.38,432.665v37.261a10.6,10.6,0,0,1-10.625,10.625H84A10.6,10.6,0,0,1,73.38,469.926V432.665A10.6,10.6,0,0,1,84,422.04h38.751a10.6,10.6,0,0,1,10.625,10.625Zm-2.527,36.287V433.609a9.062,9.062,0,0,0-9.072-9.072H84.949a9.088,9.088,0,0,0-9.072,9.1v35.312a9.094,9.094,0,0,0,9.072,9.1h36.862a8.675,8.675,0,0,0,6.365-2.617A9.034,9.034,0,0,0,130.853,468.951Z" transform="translate(-73.38 -422.04)" fill="#ff7e1b"/>
		<path id="패스_381" data-name="패스 381" d="M135.045,437.8v35.342a9.034,9.034,0,0,1-2.677,6.485A8.675,8.675,0,0,1,126,482.245H89.142a9.094,9.094,0,0,1-9.072-9.1V437.832a9.088,9.088,0,0,1,9.072-9.1h36.832a9.062,9.062,0,0,1,9.072,9.072ZM123.6,470.344V448.516c0-.265-.112-.373-.332-.336h-4.323q-.37,0-.336.336l.03,21.794c0,.224.123.347.366.366h4.263c.161,0,.258-.03.287-.09A.552.552,0,0,0,123.6,470.344Zm.336-28.13q0-2.526-2.83-2.83a2.877,2.877,0,0,0-2.012.747,2.677,2.677,0,0,0-.821,2.083,2.53,2.53,0,0,0,2.77,2.833,3.015,3.015,0,0,0,2.072-.732A2.663,2.663,0,0,0,123.935,442.214Zm-9.65,28.462c.224,0,.284-.119.183-.366l-8.8-29.862a.4.4,0,0,0-.09-.213.353.353,0,0,0-.243-.06H99.55c-.142,0-.22.09-.243.273-.019.65-.049,1.139-.09,1.463a4.692,4.692,0,0,1-.183.851L91.18,470.251a.615.615,0,0,0,.015.321c.03.071.127.1.287.1h4.051a.4.4,0,0,0,.287-.075.68.68,0,0,0,.138-.228l2.191-8.31h8.829l2.251,8.34a.456.456,0,0,0,.459.273Z" transform="translate(-77.572 -426.233)" fill="#41322a"/>
		<path id="패스_382" data-name="패스 382" d="M188.287,481.154v21.828a.552.552,0,0,1-.045.243c-.03.06-.127.09-.287.09h-4.263c-.243-.019-.366-.142-.366-.366l-.03-21.794q-.034-.336.336-.336h4.323C188.175,480.781,188.287,480.889,188.287,481.154Z" transform="translate(-142.26 -458.87)" fill="#ff7e1b"/>
		<path id="패스_383" data-name="패스 383" d="M185.233,457.27q2.828.3,2.83,2.83a2.663,2.663,0,0,1-.821,2.1,3.015,3.015,0,0,1-2.072.732,2.53,2.53,0,0,1-2.77-2.833,2.678,2.678,0,0,1,.821-2.083A2.877,2.877,0,0,1,185.233,457.27Z" transform="translate(-141.701 -444.118)" fill="#ff7e1b"/>
		<path id="패스_384" data-name="패스 384" d="M133.1,489.524c.1.246.041.366-.183.366h-4.6a.456.456,0,0,1-.459-.273l-2.251-8.34h-8.829l-2.191,8.31a.68.68,0,0,1-.138.228.4.4,0,0,1-.287.075h-4.051c-.161,0-.258-.034-.287-.1a.615.615,0,0,1-.015-.321l7.855-27.488a4.691,4.691,0,0,0,.183-.851c.041-.325.071-.814.09-1.463.022-.183.1-.273.243-.273h5.786a.353.353,0,0,1,.243.06.405.405,0,0,1,.09.213Zm-15.19-12.693h6.544q-.364-1.462-.945-3.681c-.444-1.646-.889-3.319-1.322-5.025s-.777-3.147-1.023-4.323h-.06q-.454,2.559-1.37,6.119T117.905,476.831Z" transform="translate(-96.201 -445.447)" fill="#ff7e1b"/>
		<path id="패스_385" data-name="패스 385" d="M138.064,484.239H131.52q.913-3.349,1.826-6.91t1.37-6.119h.06q.37,1.764,1.023,4.323c.433,1.706.877,3.379,1.322,5.025Q137.7,482.775,138.064,484.239Z" transform="translate(-109.815 -452.854)" fill="#41322a"/>
	  </g>
	</g>
  </svg>
  