<svg xmlns="http://www.w3.org/2000/svg" width="60" height="58.51" viewBox="0 0 60 58.51">
	<g id="그룹_129" data-name="그룹 129" transform="translate(-565.25 -422.04)">
	  <g id="그룹_118" data-name="그룹 118" transform="translate(565.25 422.04)">
		<path id="패스_375" data-name="패스 375" d="M625.25,432.665v37.261a10.6,10.6,0,0,1-10.625,10.625H575.875a10.6,10.6,0,0,1-10.625-10.625V432.665a10.6,10.6,0,0,1,10.625-10.625h38.751a10.6,10.6,0,0,1,10.625,10.625Zm-2.527,36.287V433.609a9.062,9.062,0,0,0-9.072-9.072H576.815a9.094,9.094,0,0,0-9.072,9.1v35.312a9.1,9.1,0,0,0,9.072,9.1h36.865a8.661,8.661,0,0,0,6.361-2.617A9.022,9.022,0,0,0,622.723,468.951Z" transform="translate(-565.25 -422.04)" fill="#eb43a3"/>
		<path id="패스_376" data-name="패스 376" d="M626.909,437.8v35.342a9.022,9.022,0,0,1-2.68,6.485,8.66,8.66,0,0,1-6.361,2.617H581a9.1,9.1,0,0,1-9.072-9.1V437.832a9.094,9.094,0,0,1,9.072-9.1h36.835a9.062,9.062,0,0,1,9.072,9.072Zm-13.365,31.124c.041-.03.063-.093.063-.2-.1-1.112-.153-2.057-.153-2.83V439.627a.239.239,0,0,0-.045-.168.382.382,0,0,0-.231-.045h-4.566a.332.332,0,0,0-.183.06.24.24,0,0,0-.09.213v7.429c-.265-.019-.5-.03-.717-.03h-.776a10.76,10.76,0,0,0-8.43,3.453,12.259,12.259,0,0,0-3.106,8.508q0,5.88,3.013,8.769A10.635,10.635,0,0,0,606,470.71a17.942,17.942,0,0,0,7.366-1.676A1.023,1.023,0,0,0,613.544,468.925Zm-23.165.959V439.717q0-.33-.336-.3h-4.353c-.243,0-.366.112-.366.336v30.134a.323.323,0,0,0,.366.366h4.323a.491.491,0,0,0,.306-.06A.512.512,0,0,0,590.379,469.885Z" transform="translate(-569.436 -426.233)" fill="#412534"/>
		<path id="패스_377" data-name="패스 377" d="M652.856,486.663c0,.1-.022.168-.063.2a1.025,1.025,0,0,1-.183.108,17.942,17.942,0,0,1-7.366,1.676,10.635,10.635,0,0,1-7.672-2.893q-3.013-2.889-3.013-8.769a12.259,12.259,0,0,1,3.106-8.508,10.76,10.76,0,0,1,8.43-3.453h.776c.213,0,.452.011.717.03v-7.429a.24.24,0,0,1,.09-.213.332.332,0,0,1,.183-.06h4.566a.382.382,0,0,1,.231.045.239.239,0,0,1,.045.168v26.271C652.7,484.606,652.752,485.551,652.856,486.663Zm-5.268-2.83V469.617a3.948,3.948,0,0,0-1.676-.3,5.541,5.541,0,0,0-4.413,1.979,8.081,8.081,0,0,0-1.706,5.447q0,3.959,1.691,5.678a5.53,5.53,0,0,0,4.1,1.721A6.443,6.443,0,0,0,647.589,483.833Z" transform="translate(-608.685 -444.168)" fill="#eb43a3"/>
		<path id="패스_378" data-name="패스 378" d="M656.375,489.7v14.216a6.443,6.443,0,0,1-2.008.306,5.53,5.53,0,0,1-4.1-1.721q-1.691-1.719-1.691-5.678a8.081,8.081,0,0,1,1.706-5.447A5.541,5.541,0,0,1,654.7,489.4,3.948,3.948,0,0,1,656.375,489.7Z" transform="translate(-617.471 -464.253)" fill="#412534"/>
		<path id="패스_379" data-name="패스 379" d="M612.865,457.649v30.168a.512.512,0,0,1-.06.306.491.491,0,0,1-.306.06h-4.323a.323.323,0,0,1-.366-.366V457.682c0-.224.123-.336.366-.336h4.353Q612.865,457.318,612.865,457.649Z" transform="translate(-591.922 -444.164)" fill="#eb43a3"/>
	  </g>
	</g>
  </svg>
  