<svg xmlns="http://www.w3.org/2000/svg" width="60" height="72.162" viewBox="0 0 60 72.162">
	<g id="그룹_126" data-name="그룹 126" transform="translate(-153.098 -72.311)">
	  <g id="그룹_106" data-name="그룹 106" transform="translate(153.098 127.473)">
		<path id="패스_340" data-name="패스 340" d="M381.788,326.587l3.141.017s-5.84,7.913-6.317,8.558a3.67,3.67,0,0,0-.509.713,15.955,15.955,0,0,0-.611,2.241l-2.874.014a11.835,11.835,0,0,0,.429-2.46,9.491,9.491,0,0,0-.611-2.241c-.216-.758-.509-2.241-.509-2.241h2.955l.407,1.63,4.5-6.232" transform="translate(-324.929 -325.331)" fill="#1a1918"/>
		<path id="패스_341" data-name="패스 341" d="M349.044,333.227c.58.35.935,2.277.935,2.277s-3.033.045-4.684.045h-1.426l-1.732,7.539h-2.649s1.649-8.193,2.038-9.679c.126-.481.864-.4,2.11-.4h1.99c1.285,0,2.787-.164,3.418.216" transform="translate(-298.132 -330.302)" fill="#1a1918"/>
		<path id="패스_342" data-name="패스 342" d="M301.455,336.507a1.588,1.588,0,0,0-.28-1.044c-.31-.478-.6-.589-1.411-.614-2.3-.072-2.257,1.633-2.257,1.633Zm2.5-1.953a12.5,12.5,0,0,1-.306,4.075s-3.357-.056-5.2,0c-.572.017-1.256-.062-1.426.2-.24.373.087.947.365,1.189a2.308,2.308,0,0,0,1.164.339,38.527,38.527,0,0,0,4.616.049l-.541,2.4A32.4,32.4,0,0,1,296,342.5a2.249,2.249,0,0,1-1.121-.611c-.075-.081-.141-.192-.212-.288a2.677,2.677,0,0,1-.3-.527c-.5-1.344.059-3.918.611-5.3.064-.16.145-.363.229-.535.106-.215.2-.458.28-.586.057-.089.128-.146.187-.229a3.368,3.368,0,0,1,.221-.28,4.194,4.194,0,0,1,.713-.611,6.735,6.735,0,0,1,4.585-1.019,3.5,3.5,0,0,1,2.445,1.121A3.429,3.429,0,0,1,303.951,334.554Z" transform="translate(-262.876 -329.91)" fill="#1a1918"/>
		<path id="패스_343" data-name="패스 343" d="M256.928,333.04l2.568-.015s-1.431,6.79-2.161,10.1h-2.955c-2.065,0-3.9.256-4.686-1.223-.759-1.436-.035-3.8.306-5.4.241-1.135.747-3.455.747-3.455l2.661-.024s-.752,3.611-1.065,5.415c-.112.646-.343,1.254-.1,1.732.229.454.55.487,1.528.509.31.007,1.324,0,1.324,0l1.834-7.641" transform="translate(-228.002 -330.34)" fill="#1a1918"/>
		<path id="패스_344" data-name="패스 344" d="M198.724,328.515a9.758,9.758,0,0,0,.611-2.853,2.449,2.449,0,0,0-1.324-1.936,3.393,3.393,0,0,0-3.464.815,5.655,5.655,0,0,0-1.223,2.954,4.445,4.445,0,0,0,0,2.649c.613,1.288,2.526,1.007,4.585,1.019C198.215,330.344,198.468,329.424,198.724,328.515Zm3.566-3.77c.293,2.133-.832,4.488-1.608,6.536.791.071,1.483-.011,1.533.048a8.31,8.31,0,0,1-.733,2.45c-.627.016-2.707.034-3.574.034-2.829,0-5.476.184-6.826-1.223a4.436,4.436,0,0,1-1.019-2.241,9.507,9.507,0,0,1,.306-3.464,10.484,10.484,0,0,1,1.019-2.649,6.768,6.768,0,0,1,8.965-2.547c.042.024.187.141.221.161A4.435,4.435,0,0,1,202.29,324.745Z" transform="translate(-181.82 -320.924)" fill="#1a1918"/>
		<path id="패스_345" data-name="패스 345" d="M177.1,333.105c-.171.779-.342,1.663-.523,2.433h-2.853c.221-.854.39-1.7.611-2.445.913,0,1.762.012,2.764.012" transform="translate(-169.148 -330.393)" fill="#1a1918"/>
		<path id="패스_346" data-name="패스 346" d="M157.573,347.328h2.751c-.36,1.991-1.072,5.2-1.63,7.437-.349,1.4-.583,2.42-1.528,3.158-.085.066-.133.035-.2.1a3.889,3.889,0,0,1-1.426.407,20.545,20.545,0,0,1-2.437-.008c.233-.853.5-1.877.705-2.641,2.173.263,2.228-1.791,2.649-3.77.244-1.143.981-4.228,1.121-4.686" transform="translate(-153.098 -341.47)" fill="#1a1918"/>
	  </g>
	  <g id="그룹_107" data-name="그룹 107" transform="translate(156.752 72.311)">
		<path id="패스_347" data-name="패스 347" d="M221.843,140.068l-.24.621c-4.083,7.949-11.316,12.826-21.633,13.041a30.236,30.236,0,0,1-12.421-2.484,32.082,32.082,0,0,1-14.9-14.076c-4.269-8.268-5.039-19.769,3.838-28.36.137,0-1.077,1.863-.94,1.863l-.244.795c-6.4,20.026,13.31,37.187,32.467,35.225a25.162,25.162,0,0,0,14.077-6.624" transform="translate(-169.567 -100.712)" fill="#21609b"/>
		<path id="패스_348" data-name="패스 348" d="M265.454,112.36a18.324,18.324,0,0,0,12.834-5.382c-2.608,6.62-10.16,10.876-20.287,9.522-8.479-1.134-16.556-9.667-17.389-18.217-.609-6.222,1.56-9.936,5.134-14.441a15.107,15.107,0,0,0-1.822,5.332c-1.358,13.46,10.752,23.115,21.529,23.185" transform="translate(-224.771 -81.284)" fill="#21609b"/>
		<path id="패스_349" data-name="패스 349" d="M326.045,86.669c-.749,1.718-5.063,4.964-6.968,5.369-7.543,1.607-12.374-1.97-14.9-6.04a18.628,18.628,0,0,1-1.2-2.691c-.981-3.337-.53-8.384,2.4-11a13.747,13.747,0,0,0-.546,7.245,16.087,16.087,0,0,0,2,4.36,11.466,11.466,0,0,0,4.554,4.025,12.114,12.114,0,0,0,2.29,1.1c1.9.559,5.912,2.033,12.379-2.368" transform="translate(-273.011 -72.311)" fill="#21609b"/>
	  </g>
	</g>
  </svg>
  