<svg id="그룹_124" data-name="그룹 124" xmlns="http://www.w3.org/2000/svg" width="60" height="60" viewBox="0 0 60 60">
	<rect id="사각형_534" data-name="사각형 534" width="60" height="60" fill="#f7df1e"/>
	<path id="패스_337" data-name="패스 337" d="M190.387,305.538c1.209,1.973,2.781,3.424,5.562,3.424,2.336,0,3.829-1.168,3.829-2.781,0-1.933-1.533-2.618-4.1-3.743l-1.41-.6c-4.069-1.733-6.771-3.9-6.771-8.5,0-4.229,3.222-7.448,8.257-7.448,3.585,0,6.162,1.248,8.019,4.514l-4.39,2.819c-.967-1.733-2.01-2.416-3.629-2.416a2.453,2.453,0,0,0-2.7,2.416c0,1.691,1.048,2.376,3.467,3.424l1.41.6c4.79,2.054,7.5,4.149,7.5,8.857,0,5.076-3.988,7.857-9.343,7.857-5.236,0-8.619-2.5-10.274-5.766Zm-19.917.489c.886,1.571,1.691,2.9,3.629,2.9,1.852,0,3.021-.725,3.021-3.543V286.212h5.638V305.46c0,5.838-3.423,8.5-8.419,8.5a8.753,8.753,0,0,1-8.458-5.15Z" transform="translate(-150.082 -258.662)"/>
  </svg>
  