<svg xmlns="http://www.w3.org/2000/svg" width="60" height="58.51" viewBox="0 0 60 58.51">
    <g id="그룹_133" data-name="그룹 133" transform="translate(-319.31 -422.04)">
      <g id="그룹_116" data-name="그룹 116" transform="translate(319.31 422.04)">
        <path id="패스_370" data-name="패스 370" d="M368.689,422.04a10.6,10.6,0,0,1,10.621,10.625v37.261a10.6,10.6,0,0,1-10.621,10.625H329.935a10.6,10.6,0,0,1-10.625-10.625V432.665a10.6,10.6,0,0,1,10.625-10.625Zm8.1,46.911V433.609a9.069,9.069,0,0,0-9.072-9.072H330.879a9.088,9.088,0,0,0-9.072,9.1v35.312a9.094,9.094,0,0,0,9.072,9.1h36.865a8.666,8.666,0,0,0,6.361-2.617A9.022,9.022,0,0,0,376.786,468.951Z" transform="translate(-319.31 -422.04)" fill="#df76ff"/>
        <path id="패스_371" data-name="패스 371" d="M380.979,437.8v35.342a9.022,9.022,0,0,1-2.68,6.485,8.666,8.666,0,0,1-6.361,2.617H335.072a9.094,9.094,0,0,1-9.072-9.1V437.832a9.088,9.088,0,0,1,9.072-9.1h36.836a9.069,9.069,0,0,1,9.072,9.072Zm-11.692,13.82v-3.808a.246.246,0,0,0-.06-.2.376.376,0,0,0-.213-.045,24.11,24.11,0,0,0-5.813.642,25.247,25.247,0,0,0-3.838,1.187.6.6,0,0,0-.168.1.368.368,0,0,0-.045.228q.123,2.072.123,2.557v16.743c0,.2.108.295.332.273h4.11c.224,0,.336-.09.336-.273v-16.62a7.893,7.893,0,0,1,2.176-.441,23.73,23.73,0,0,1,2.785-.108.375.375,0,0,0,.213-.045C369.268,451.79,369.286,451.723,369.286,451.622Zm-15.463,3.2a9.283,9.283,0,0,0,1.46-5.417,9.14,9.14,0,0,0-2.494-6.514q-2.5-2.649-8.008-2.651-3.9,0-6.757.153c-.123,0-.2.03-.228.09a.493.493,0,0,0-.045.213v28.342c0,.2.108.295.332.273h4.051c.2,0,.3-.09.3-.273V458.9c.306,0,.579.007.825.03s.668.03,1.217.03a14.042,14.042,0,0,0,5.417-1.019A8.744,8.744,0,0,0,353.824,454.818Z" transform="translate(-323.503 -426.233)" fill="#1b0124"/>
        <path id="패스_372" data-name="패스 372" d="M424.936,479.443v3.808c0,.1-.019.168-.06.2a.375.375,0,0,1-.213.045,23.73,23.73,0,0,0-2.785.108,7.894,7.894,0,0,0-2.176.44v16.62c0,.183-.112.273-.336.273h-4.11c-.224.022-.332-.071-.332-.273V483.919q0-.487-.123-2.557a.368.368,0,0,1,.045-.228.6.6,0,0,1,.168-.1,25.251,25.251,0,0,1,3.838-1.187,24.11,24.11,0,0,1,5.813-.642.376.376,0,0,1,.213.045A.246.246,0,0,1,424.936,479.443Z" transform="translate(-379.152 -457.861)" fill="#df76ff"/>
        <path id="패스_373" data-name="패스 373" d="M375.011,468.715a9.283,9.283,0,0,1-1.46,5.417,8.743,8.743,0,0,1-3.927,3.121,14.042,14.042,0,0,1-5.417,1.019c-.549,0-.956-.011-1.217-.03s-.519-.03-.825-.03v10.136c0,.183-.1.273-.3.273h-4.051c-.224.022-.332-.071-.332-.273V460.005a.493.493,0,0,1,.045-.213c.03-.06.1-.09.228-.09q2.862-.151,6.757-.153,5.51,0,8.008,2.651A9.14,9.14,0,0,1,375.011,468.715Zm-4.749.06a4.694,4.694,0,0,0-1.46-3.759,6.135,6.135,0,0,0-4.14-1.266c-1.034,0-1.867.034-2.5.093v10.136c.284.022.586.037.9.045s.724.015,1.232.015a8.1,8.1,0,0,0,4.125-1.064Q370.264,471.911,370.262,468.775Z" transform="translate(-343.23 -445.547)" fill="#df76ff"/>
        <path id="패스_374" data-name="패스 374" d="M376.668,472.066a4.694,4.694,0,0,1,1.46,3.759q0,3.136-1.84,4.2a8.1,8.1,0,0,1-4.125,1.064c-.508,0-.918,0-1.232-.015s-.616-.022-.9-.045V470.893c.631-.06,1.463-.093,2.5-.093A6.135,6.135,0,0,1,376.668,472.066Z" transform="translate(-351.095 -452.597)" fill="#1b0124"/>
      </g>
    </g>
  </svg>
  