<svg xmlns="http://www.w3.org/2000/svg" width="60" height="58.511" viewBox="0 0 60 58.511">
	<g id="그룹_128" data-name="그룹 128" transform="translate(-565.25 -622.44)">
	  <g id="그룹_112" data-name="그룹 112" transform="translate(565.25 622.44)">
		<path id="패스_359" data-name="패스 359" d="M614.625,622.44a10.6,10.6,0,0,1,10.625,10.625v37.261a10.6,10.6,0,0,1-10.625,10.625H575.875a10.6,10.6,0,0,1-10.625-10.625V633.065a10.6,10.6,0,0,1,10.625-10.625Zm8.1,46.911V634.009a9.062,9.062,0,0,0-9.072-9.072H576.815a9.094,9.094,0,0,0-9.072,9.1v35.312a9.1,9.1,0,0,0,9.072,9.1h36.865a8.661,8.661,0,0,0,6.361-2.617A9.022,9.022,0,0,0,622.723,669.351Z" transform="translate(-565.25 -622.44)" fill="#ff2bc2"/>
		<path id="패스_360" data-name="패스 360" d="M626.909,638.2v35.342a9.022,9.022,0,0,1-2.68,6.484,8.66,8.66,0,0,1-6.361,2.617H581a9.1,9.1,0,0,1-9.072-9.1V638.232a9.094,9.094,0,0,1,9.072-9.1h36.835a9.062,9.062,0,0,1,9.072,9.072Zm-8.963,28.734a.985.985,0,0,0,.015-.183c-.082-.952-.123-1.766-.123-2.434V641.487a.182.182,0,0,0-.045-.134.275.275,0,0,0-.2-.049h-4.05a.212.212,0,0,0-.153.063.263.263,0,0,0-.06.183v6.485c-.243-.022-.456-.037-.638-.049s-.407-.015-.672-.015a9.133,9.133,0,0,0-7.257,3.013,10.806,10.806,0,0,0-2.636,7.369q0,5.113,2.606,7.623a9.208,9.208,0,0,0,6.679,2.512,15.552,15.552,0,0,0,6.395-1.46C617.886,667.007,617.934,666.977,617.945,666.936Zm-17.292,1.217a.388.388,0,0,0-.045-.3l-7-13.548,6.608-12.663c.1-.243.049-.366-.153-.366h-4.051a.409.409,0,0,0-.273.078.566.566,0,0,0-.153.228v.03q-.61,1.31-1.247,2.677-1.708,3.567-3.319,7.186h-.06q-1.674-3.685-3.412-7.276c-.426-.892-.851-1.777-1.277-2.647-.022-.123-.06-.2-.123-.232a.632.632,0,0,0-.273-.045H581.55a.236.236,0,0,0-.2.108.22.22,0,0,0,.015.258l6.608,13.089-6.82,13.152a.278.278,0,0,0-.06.243q.028.123.213.123h4.14a.5.5,0,0,0,.455-.272q2.436-5.118,4.749-10.292h.03q2.531,5.331,4.9,10.259a.467.467,0,0,0,.183.261.659.659,0,0,0,.336.075h4.353A.189.189,0,0,0,600.653,668.153Z" transform="translate(-569.436 -626.633)" fill="#2e001e"/>
		<path id="패스_361" data-name="패스 361" d="M668.652,687.189a.985.985,0,0,1-.015.183c-.011.041-.06.071-.138.093a15.552,15.552,0,0,1-6.395,1.46,9.208,9.208,0,0,1-6.679-2.512q-2.6-2.509-2.606-7.623a10.806,10.806,0,0,1,2.636-7.369,9.133,9.133,0,0,1,7.257-3.013c.265,0,.489.007.672.015s.4.026.638.049v-6.485a.262.262,0,0,1,.06-.183.211.211,0,0,1,.153-.063h4.05a.276.276,0,0,1,.2.049.182.182,0,0,1,.045.134v22.832C668.529,685.423,668.57,686.237,668.652,687.189Zm-4.659-2.434.03-12.361a3.679,3.679,0,0,0-1.46-.243q-5.269.4-5.268,6.425c0,2.311.478,3.968,1.43,4.961a4.706,4.706,0,0,0,3.532,1.49A5.453,5.453,0,0,0,663.993,684.755Z" transform="translate(-620.128 -647.069)" fill="#ff2bc2"/>
		<path id="패스_362" data-name="패스 362" d="M671.537,689.873l-.03,12.361a5.451,5.451,0,0,1-1.736.273,4.706,4.706,0,0,1-3.532-1.49c-.952-.993-1.43-2.651-1.43-4.961q0-6.031,5.268-6.425A3.679,3.679,0,0,1,671.537,689.873Z" transform="translate(-627.642 -664.547)" fill="#2e001e"/>
		<path id="패스_363" data-name="패스 363" d="M615.979,688.237a.388.388,0,0,1,.045.3.189.189,0,0,1-.2.123h-4.353a.658.658,0,0,1-.336-.075.467.467,0,0,1-.183-.261q-2.374-4.928-4.9-10.259h-.03q-2.313,5.18-4.749,10.292a.5.5,0,0,1-.455.272h-4.14q-.185,0-.213-.123a.278.278,0,0,1,.06-.243l6.821-13.152-6.608-13.089a.22.22,0,0,1-.015-.258.236.236,0,0,1,.2-.108h4.323a.632.632,0,0,1,.273.045c.063.034.1.108.123.232.426.87.851,1.755,1.277,2.647q1.736,3.6,3.412,7.276h.06q1.613-3.623,3.319-7.186.638-1.366,1.247-2.677v-.03a.566.566,0,0,1,.153-.228.409.409,0,0,1,.273-.078h4.051c.2,0,.254.123.153.366l-6.608,12.663Z" transform="translate(-584.807 -647.018)" fill="#ff2bc2"/>
	  </g>
	</g>
  </svg>
  