<svg xmlns="http://www.w3.org/2000/svg" width="158.34" height="24.45" viewBox="0 0 158.34 24.45">
    <path id="패스_413" data-name="패스 413" d="M43.16,2A1.309,1.309,0,0,0,41.875.666a1.218,1.218,0,0,0-.135,0H26.47V2.22h13V5.74a10.788,10.788,0,0,1-.51,3.72H23.67V11h8.89v3H26.13v1.55H39.35v8h2.14c1,0,1.56-.4,1.56-1.67V15.3a1.25,1.25,0,0,0-1.2-1.3c-.031,0-.061,0-.092,0h-5.5V11h9.45V9.46H42.1a7.427,7.427,0,0,0,1.06-3.83Z" fill="#002d74"/>
    <path id="패스_414" data-name="패스 414" d="M9.05,15.46H4.82a3.6,3.6,0,0,1,.49,2V21.7c0,1.42.5,1.83,1.94,1.83H20.36V22H9.05Z" fill="#002d74"/>
    <path id="패스_415" data-name="패스 415" d="M103.6,1.68H94.76a3.57,3.57,0,0,1,.49,2v10c0,1.43.49,1.82,1.94,1.82h8.34V3.5c0-1.42-.53-1.82-1.93-1.82m-5,1.54h3.52v10.7H98.6Z" fill="#002d74"/>
    <path id="패스_416" data-name="패스 416" d="M13.64,2h-5V0H4.58A2.715,2.715,0,0,1,5,1.6V2H0V3.56H3.25A5.6,5.6,0,0,0,.81,8.18a5.77,5.77,0,0,0,5.845,5.694l.155,0a5.77,5.77,0,0,0,6-5.535c0-.052,0-.1,0-.155a5.581,5.581,0,0,0-2.44-4.62h3.3ZM6.79,12.31C5.15,12.31,4.06,10.63,4,8.2S5.15,4.09,6.79,4.09,9.54,5.77,9.56,8.2s-1.13,4.11-2.77,4.11" fill="#002d74"/>
    <path id="패스_417" data-name="패스 417" d="M19.51.51H15.29a3,3,0,0,1,.52,2V16.83H18c1.05,0,1.56-.47,1.56-1.65V7.56h3.66V6H19.51Z" fill="#002d74"/>
    <path id="패스_418" data-name="패스 418" d="M147,15.46h-4.2a3.6,3.6,0,0,1,.49,2V21.7c0,1.42.49,1.83,1.93,1.83h13.12V22H147Z" fill="#002d74"/>
    <path id="패스_419" data-name="패스 419" d="M157.49.51h-4.23a2.89,2.89,0,0,1,.52,2V16.83h2.14c1.06,0,1.57-.47,1.57-1.65Z" fill="#002d74"/>
    <path id="패스_420" data-name="패스 420" d="M87.25.54a2.579,2.579,0,0,1,.73,2v21H89.7c1.18,0,1.64-.77,1.64-2V.54Z" fill="#002d74"/>
    <path id="패스_421" data-name="패스 421" d="M83,7.83H79.34V9.37H83V21.42h1.61c1.17,0,1.72-.69,1.72-2.09V.54h-4a2.7,2.7,0,0,1,.66,2Z" fill="#002d74"/>
    <path id="패스_422" data-name="패스 422" d="M111.3.54a2.579,2.579,0,0,1,.73,2V7.83h-1.69V.54h-4a2.7,2.7,0,0,1,.66,2V21.42h1.61c1.17,0,1.72-.69,1.72-2.09v-10H112v14.2h1.72c1.17,0,1.64-.77,1.64-2V.54Z" fill="#002d74"/>
    <path id="패스_423" data-name="패스 423" d="M132,.54a2.579,2.579,0,0,1,.73,2V7.83h-3.29V9.37h3.29V23.53h1.72c1.18,0,1.65-.77,1.65-2V.54Z" fill="#002d74"/>
    <path id="패스_424" data-name="패스 424" d="M59.27,2.91a1.22,1.22,0,0,0-.953-1.438A1.251,1.251,0,0,0,58,1.45H48.16V3h7.36c0,5.48-3.22,8.94-8.61,9.87l.67,1c7-.85,11.18-4.14,11.69-11" fill="#002d74"/>
    <path id="패스_425" data-name="패스 425" d="M129.7,2.91a1.22,1.22,0,0,0-.956-1.437,1.2,1.2,0,0,0-.274-.023h-9.88V3H126c0,6.29-2.19,10.78-8.61,13.43l.67,1c7.36-1.73,11.69-7,11.69-14.56" fill="#002d74"/>
    <path id="패스_426" data-name="패스 426" d="M66.89.54H62.63a2.833,2.833,0,0,1,.66,2v1.7H59.42V5.78h3.87V8h-4V9.57h4v3.54a7.458,7.458,0,0,0-3.11-.66c-3.61,0-6.64,2.43-6.69,6s3.08,6,6.69,6,6.65-2.42,6.71-6a1.206,1.206,0,0,1,0-.19ZM60.17,22.76c-1.94,0-3.24-1.78-3.26-4.33s1.32-4.33,3.26-4.33,3.28,1.78,3.3,4.33-1.34,4.33-3.3,4.33" fill="#002d74"/>
    <path id="패스_427" data-name="패스 427" d="M80.4,2.8a1.23,1.23,0,0,0-1.34-1.35h-8.7V3h6.41c0,4.75-3.24,7.75-8,9.51a17.25,17.25,0,0,1,11.77,7.37V15.17A15.07,15.07,0,0,0,73.59,12c3.64-1.4,6.81-6,6.81-9.24" fill="#002d74"/>
    <path id="패스_428" data-name="패스 428" d="M151,2.8a1.23,1.23,0,0,0-1.34-1.35h-9.22V3h6.93c0,2.78-3.77,6.58-8.53,7.73,5.34.52,10.06,2.95,12.64,6.12V12.67a17.3,17.3,0,0,0-7.64-2.59C147.52,8.88,151,6,151,2.8" fill="#002d74"/>
</svg>
  