<svg xmlns="http://www.w3.org/2000/svg" width="151.219" height="77.679" viewBox="0 0 151.219 77.679">
    <path id="패스_436" data-name="패스 436" d="M208.79,30.512l13.125,4.152a29.577,29.577,0,0,1-5.526,9.649,22.353,22.353,0,0,1-8.076,5.823,29.163,29.163,0,0,1-11.425,1.974q-8.228,0-13.16-2.387a17.83,17.83,0,0,1-7.983-8.379q-3.057-6.015-1.9-15.4,1.531-12.508,9.014-19.216T202.536,0q9.527,0,14.511,3.866T223.7,15.722l-14.144,3.045a10.3,10.3,0,0,0-1.106-3.342,7.465,7.465,0,0,0-2.859-2.725,8.568,8.568,0,0,0-4.105-.955,10.512,10.512,0,0,0-8.635,4.233q-2.509,3.144-3.337,9.9-1.019,8.321,1.176,11.39c1.45,2.055,3.709,3.086,6.8,3.086a9.753,9.753,0,0,0,7.086-2.521,17.959,17.959,0,0,0,4.21-7.319" transform="translate(-72.484)" fill="#00a550"/>
    <path id="패스_437" data-name="패스 437" d="M89.887,28.529s12.182-2.108,12.182-14.889c0,0,2.213-12.42-15.873-12.42H43.927S40.177,1.4,39.437,7.5l-2.58,19.978s-.111,1.432-.839-.1L23.506,5.046S21.357,1.22,15.767,1.22H6.782L.5,51.78h9.788s4.53.134,5.345-5.351l2.976-20.881s.146-1.165.763-.163L31.693,47.512a8.2,8.2,0,0,0,7.232,4.239h9.9L54.565,4.883a2.1,2.1,0,0,1,2.131-2c.937,0,1.1.507.978,1.357L52.434,46.615s-1.083,5.136,4.047,5.136H67.37l2.213-18.395s0-2.032,1.66-2.032a4.528,4.528,0,0,1,4.984,2.585l7.436,17.9h17.871L95.814,37.6s-1.922-6.277-7.325-8.117c-.029-.029-1.013-.215,1.4-.955M86.2,15.987c0,6.219-9.235,5.689-9.235,5.689H71.253l1.095-10.1h7.133c7.314,0,6.708,4.414,6.708,4.414Z" transform="translate(-0.21 -0.51)" fill="#1f5a9e"/>
    <path id="패스_438" data-name="패스 438" d="M4.975,106.86a9.416,9.416,0,0,0-2.114,3.913,16.92,16.92,0,0,0-.53,3.808,16.428,16.428,0,0,0,.507,3.8,9.435,9.435,0,0,0,2.114,3.907H3.327a10.436,10.436,0,0,1-2.271-3.08,10.7,10.7,0,0,1,0-9.276,10.419,10.419,0,0,1,2.288-3.074Z" transform="translate(0.001 -44.636)" fill="#221e1f"/>
    <path id="패스_439" data-name="패스 439" d="M16.344,117.364H10.306v-1.828H24.9v1.828H18.865V122.6H16.344Zm-.082-7.948h-4.3V107.57H23.238v1.846H18.947a3.2,3.2,0,0,0,.454,1.549,3.879,3.879,0,0,0,1,1.083,5.387,5.387,0,0,0,1.956.914,8.919,8.919,0,0,0,1.747.279c.064,0,.093,0,.087.041a.45.45,0,0,1-.035.093l-1.45,1.432a7.866,7.866,0,0,1-3.168-.9,5.837,5.837,0,0,1-1.042-.757,3.8,3.8,0,0,1-.8-.943.184.184,0,0,0-.111-.041c-.064,0-.1,0-.122.041a3.8,3.8,0,0,1-.879,1.036,6.712,6.712,0,0,1-1.194.786,7.86,7.86,0,0,1-1.473.547,7.481,7.481,0,0,1-1.444.227l-1.438-1.427a.213.213,0,0,1-.041-.093s0-.041.087-.041a8.291,8.291,0,0,0,1.706-.268,5.466,5.466,0,0,0,1.875-.827,4.174,4.174,0,0,0,1.071-1.118,3.385,3.385,0,0,0,.524-1.613" transform="translate(-4.304 -44.933)" fill="#221e1f"/>
    <path id="패스_440" data-name="패스 440" d="M42.038,114.581a9.83,9.83,0,0,1-1.054,4.629,10.475,10.475,0,0,1-2.277,3.08H37.088a9.42,9.42,0,0,0,2.108-3.907,15.876,15.876,0,0,0,.512-3.8,16.921,16.921,0,0,0-.53-3.808,9.353,9.353,0,0,0-2.114-3.913H38.69a10.714,10.714,0,0,1,2.288,3.074,9.774,9.774,0,0,1,1.06,4.647" transform="translate(-15.482 -44.636)" fill="#221e1f"/>
    <path id="패스_441" data-name="패스 441" d="M53.392,109.956a2.593,2.593,0,0,1,.4,1.473,2.631,2.631,0,0,1-.4,1.479,1.3,1.3,0,0,1-2.167,0,2.587,2.587,0,0,1-.413-1.479,2.55,2.55,0,0,1,.413-1.473,1.263,1.263,0,0,1,1.077-.582,1.248,1.248,0,0,1,1.089.582m-3.873-1.3a3.878,3.878,0,0,0-.059,5.484l.059.059a3.966,3.966,0,0,0,5.567,0,3.878,3.878,0,0,0,.059-5.484l-.059-.059a3.949,3.949,0,0,0-5.567,0M60,112.646v5.287h2.184V106.87H59.167v.839h.186a.582.582,0,0,1,.518.2.8.8,0,0,1,.146.489v2.417h-.932V106.87H56.058v.839h.181a.581.581,0,0,1,.523.2.832.832,0,0,1,.135.489v9.538h2.189v-5.287Zm-8.646,4.117v.833h.326a.619.619,0,0,1,.5.21.749.749,0,0,1,.163.477v2.481a1.406,1.406,0,0,0,.332,1.036,1.378,1.378,0,0,0,1.013.326H62.37v-1.84H55.139a.217.217,0,0,1-.181-.076.215.215,0,0,1-.064-.181v-3.267Z" transform="translate(-20.197 -44.641)" fill="#221e1f"/>
    <path id="패스_442" data-name="패스 442" d="M78.769,109.632a1.259,1.259,0,0,1,2.108,0,2.085,2.085,0,0,1,0,2.614,1.258,1.258,0,0,1-2.108,0,2.131,2.131,0,0,1,0-2.614m-1.822,3.954a4.343,4.343,0,0,0,5.764,0,3.529,3.529,0,0,0,.313-4.98,3.6,3.6,0,0,0-.313-.313,4.343,4.343,0,0,0-5.764,0,3.548,3.548,0,0,0,0,5.293m11.465-6.725H84.918v1.013h.338a.583.583,0,0,1,.495.233.859.859,0,0,1,.163.489v6.5H88.4v-3.261h2.154v-1.927H88.4ZM78.322,120.917A1.593,1.593,0,0,0,78.613,122a1.413,1.413,0,0,0,1.03.309h8.933v-1.747h-7.57a.144.144,0,0,1-.122-.041.107.107,0,0,1-.041-.093V119.9H88.08a.316.316,0,0,0,.256-.093.339.339,0,0,0,.076-.227v-3.651a.21.21,0,0,0-.041-.134.15.15,0,0,0-.128-.047H77.652v1.706H85.9v.722h-8.4v.833h.158a.584.584,0,0,1,.5.21.73.73,0,0,1,.169.483Z" transform="translate(-31.647 -44.636)" fill="#221e1f"/>
    <path id="패스_443" data-name="패스 443" d="M113.57,111.815V108.6a.825.825,0,0,0-.139-.489.584.584,0,0,0-.5-.233H112.6V106.86H116.1v15.431h-2.48v-8.536H111.1v-1.939Zm-5.939,1.572h-3.593v-1.828h4.356c.064-.291.116-.582.157-.885a6.492,6.492,0,0,0,.058-.908v-.134h-4.74V107.78h7.11a.164.164,0,0,1,.133.064.215.215,0,0,1,.053.146v1.339a8.769,8.769,0,0,1-.5,3.022,9.58,9.58,0,0,1-1.269,2.4,8.892,8.892,0,0,1-2.516,2.294,7.78,7.78,0,0,1-2.644,1.036l-1.327-1.223a.1.1,0,0,1-.036-.1c0-.041.036-.052.087-.07a7.282,7.282,0,0,0,2.65-1.135,6.852,6.852,0,0,0,2-2.166Z" transform="translate(-42.97 -44.636)" fill="#221e1f"/>
    <path id="패스_444" data-name="패스 444" d="M139.1,112.534a.269.269,0,0,1-.2.058h-5.439a.507.507,0,0,1-.2-.035c-.035,0-.058-.093-.058-.215v-2.184a.379.379,0,0,1,.041-.21c0-.041.1-.058.21-.058h5.45a.357.357,0,0,1,.215.047.344.344,0,0,1,.052.2v2.184a.29.29,0,0,1-.064.21m-8.362.443a1.417,1.417,0,0,0,.4,1.054,1.328,1.328,0,0,0,1,.39h8.094a1.327,1.327,0,0,0,1-.39,1.409,1.409,0,0,0,.39-1.054v-4.763a.157.157,0,0,0-.047-.122c0-.029-.07-.041-.134-.041H129.75v.833h.326a.581.581,0,0,1,.5.2.727.727,0,0,1,.163.489Zm12.682,4.425v-1.811H128.865v1.828h3.645v5.38h2.329v-5.38h2.486v5.38h2.329v-5.38Z" transform="translate(-53.828 -45.133)" fill="#221e1f"/>
    <path id="패스_445" data-name="패스 445" d="M169.281,122.291h-2.486v-5.014a3.784,3.784,0,0,1-1.042.227c-.4.041-.908.058-1.526.058h-5.276a2.015,2.015,0,0,1-1.485-.5,2.2,2.2,0,0,1-.5-1.578v-6a.675.675,0,0,0-.186-.483.624.624,0,0,0-.477-.2h-.3v-.839H159.5v7.43a.291.291,0,0,0,.247.33.314.314,0,0,0,.062,0h5.107a6.7,6.7,0,0,0,1.106-.076,4.317,4.317,0,0,0,.8-.192V108.6a.859.859,0,0,0-.163-.489.582.582,0,0,0-.5-.233h-.326V106.86h3.494Z" transform="translate(-65.164 -44.636)" fill="#221e1f"/>
    <path id="패스_446" data-name="패스 446" d="M186.523,113.387h-2.732v-1.828h3.36a9.324,9.324,0,0,0,.186-1.793v-.082H183.7v-1.846h5.9a.128.128,0,0,1,.122.052.162.162,0,0,1,.041.122v1.566a8.6,8.6,0,0,1-.052,1.025c-.029.338-.076.658-.122.955h1.356v-3.168a.837.837,0,0,0-.146-.489.582.582,0,0,0-.524-.2h-.175v-.839h5.963v15.431h-2.224v-13.9a.8.8,0,0,0-.151-.489.651.651,0,0,0-.541-.2v14.592h-2.219V113.4h-1.956a7.868,7.868,0,0,1-1.811,2.58,7.983,7.983,0,0,1-1.892,1.438,8.239,8.239,0,0,1-1.6.681l-1.328-1.223c-.035-.035-.046-.058-.035-.087a.188.188,0,0,1,.087-.052,7.416,7.416,0,0,0,1.24-.524,7.309,7.309,0,0,0,1.24-.792,6.578,6.578,0,0,0,.908-.9,6.17,6.17,0,0,0,.734-1.141" transform="translate(-76.151 -44.636)" fill="#221e1f"/>
    <path id="패스_447" data-name="패스 447" d="M213.018,110.575a1.678,1.678,0,0,1,1.392-.809,1.637,1.637,0,0,1,1.421.821,3.308,3.308,0,0,1,.536,1.828,3.165,3.165,0,0,1-.547,1.811,1.642,1.642,0,0,1-2.836,0,3.259,3.259,0,0,1-.542-1.834,3.014,3.014,0,0,1,.576-1.817m9.928-3.715h-3.494v1.013h.326a.582.582,0,0,1,.5.233.876.876,0,0,1,.169.489v13.7h2.481Zm-11.768,2.411a4.332,4.332,0,0,0-.129,6.125c.042.044.085.087.129.129a4.548,4.548,0,0,0,6.376,0,4.326,4.326,0,0,0,.137-6.117c-.045-.047-.09-.092-.137-.137a4.563,4.563,0,0,0-6.376,0" transform="translate(-87.653 -44.636)" fill="#221e1f"/>
    <path id="패스_448" data-name="패스 448" d="M241.709,111.767a4.7,4.7,0,0,0,.582,1.275,3.49,3.49,0,0,0,1.45,1.217,5.65,5.65,0,0,0,1.432.472c.064,0,.087,0,.087.064a.1.1,0,0,1-.035.076l-1.194,1.24a3.025,3.025,0,0,1-.99-.186,4.818,4.818,0,0,1-1.031-.5,5.819,5.819,0,0,1-1.054-.868,2.677,2.677,0,0,1-.652-1.036.156.156,0,0,0-.128-.1.116.116,0,0,0-.122.1,2.725,2.725,0,0,1-.623,1.019,4.646,4.646,0,0,1-1.036.862,5.171,5.171,0,0,1-1.054.512,2.919,2.919,0,0,1-1.019.2l-1.165-1.24a.083.083,0,0,1,0-.076c0-.041,0-.052.07-.064a5.912,5.912,0,0,0,1.363-.425,3.678,3.678,0,0,0,1.363-1.042,4.648,4.648,0,0,0,.71-1.322,5.654,5.654,0,0,0,.279-1.887v-1.077a.705.705,0,0,0-.175-.472.582.582,0,0,0-.518-.215h-.3v-.821h3.517v2.585a5.534,5.534,0,0,0,.239,1.712m-3.494,5v.833h.344a.583.583,0,0,1,.495.21.693.693,0,0,1,.169.477v2.481a1.4,1.4,0,0,0,.332,1.036,1.375,1.375,0,0,0,1.007.326h8.595v-1.84h-7.168a.239.239,0,0,1-.186-.076.235.235,0,0,1-.064-.181v-3.267Zm5.287-7.512v1.671h2.987v.9H243.5v1.671h2.987v4.443h2.486V106.87h-3.494v1.013h.326a.582.582,0,0,1,.507.233.823.823,0,0,1,.163.489v.67Z" transform="translate(-98.223 -44.641)" fill="#221e1f"/>
    <rect id="사각형_550" data-name="사각형 550" width="151.218" height="77.679" transform="translate(0)" fill="none"/>
</svg>
  