<svg xmlns="http://www.w3.org/2000/svg" width="154.233" height="52.607" viewBox="0 0 154.233 52.607">
  <path id="패스_229" data-name="패스 229" d="M266.938,385.55v2.182l3.006.009v.908h-3.006v3.087l-.824.012v-7.083h4.239l.018.885Z" transform="translate(-204.899 -346.97)"/>
  <path id="패스_230" data-name="패스 230" d="M278.4,385.415v-.97h.813l.018.99Zm0,6.206v-5.185h.813l.018,5.185Z" transform="translate(-211.675 -346.848)"/>
  <path id="패스_231" data-name="패스 231" d="M287.193,393.9v-3.1a1.573,1.573,0,0,0-.245-.985.911.911,0,0,0-.751-.3,1.118,1.118,0,0,0-.884.423,1.538,1.538,0,0,0-.357,1.031v2.941l-.824-.012v-5.142h.815l.009.538a3.065,3.065,0,0,1,.7-.553,1.561,1.561,0,0,1,1.028-.165,1.309,1.309,0,0,1,1.037.7,2.422,2.422,0,0,1,.312,1.128v3.51Z" transform="translate(-214.838 -349.117)"/>
  <path id="패스_232" data-name="패스 232" d="M299.249,393.9a1.259,1.259,0,0,1-.113-.333,2.888,2.888,0,0,1-.039-.341,2.692,2.692,0,0,1-.657.568,2.1,2.1,0,0,1-2.125.021,1.3,1.3,0,0,1-.587-1.021,1.459,1.459,0,0,1,.23-1.129,1.752,1.752,0,0,1,.82-.568,2.909,2.909,0,0,1,.841-.173,5.633,5.633,0,0,0,.833-.112c.139-.035.282-.076.426-.126s.217-.183.217-.4a.941.941,0,0,0-.254-.616,1.081,1.081,0,0,0-.869-.3,1.233,1.233,0,0,0-.9.279.786.786,0,0,0-.235.679H296a1.4,1.4,0,0,1,.539-1.316,2.323,2.323,0,0,1,1.436-.454,2.263,2.263,0,0,1,1.381.447,1.464,1.464,0,0,1,.6,1.249v2.815a1.642,1.642,0,0,0,.092.585l.1.268Zm-.152-2.612a.679.679,0,0,1-.185.12,1.451,1.451,0,0,1-.25.091,5.353,5.353,0,0,1-.706.12,2.769,2.769,0,0,0-.616.12,1.67,1.67,0,0,0-.577.332.67.67,0,0,0-.158.586.6.6,0,0,0,.344.521,1.327,1.327,0,0,0,.624.111,1.616,1.616,0,0,0,1.133-.512,1.32,1.32,0,0,0,.389-.838Z" transform="translate(-221.225 -349.117)"/>
  <path id="패스_233" data-name="패스 233" d="M311.938,393.9v-3.1a1.567,1.567,0,0,0-.245-.985.913.913,0,0,0-.753-.3,1.112,1.112,0,0,0-.881.423,1.523,1.523,0,0,0-.359,1.031v2.941l-.824-.012v-5.142h.816l.008.538a3,3,0,0,1,.7-.553,1.559,1.559,0,0,1,1.027-.165,1.3,1.3,0,0,1,1.036.7,2.4,2.4,0,0,1,.315,1.128v3.51Z" transform="translate(-228.489 -349.117)"/>
  <path id="패스_234" data-name="패스 234" d="M324.928,392.258a2.773,2.773,0,0,1-.674,1.285,1.827,1.827,0,0,1-1.417.558,1.973,1.973,0,0,1-1.653-.785,3.579,3.579,0,0,1,0-3.972,1.969,1.969,0,0,1,1.653-.785,1.848,1.848,0,0,1,1.449.6,2.47,2.47,0,0,1,.642,1.248l-.914.011c-.042-.218-.156-.265-.34-.487a1.159,1.159,0,0,0-.837-.5,1.126,1.126,0,0,0-.978.533,2.382,2.382,0,0,0-.362,1.376,2.408,2.408,0,0,0,.362,1.379,1.122,1.122,0,0,0,.978.539,1.049,1.049,0,0,0,.782-.307,1.43,1.43,0,0,0,.4-.7Z" transform="translate(-234.947 -349.117)"/>
  <path id="패스_235" data-name="패스 235" d="M333.337,385.415v-.97h.815l.018.99Zm0,6.206v-5.185h.815l.018,5.185Z" transform="translate(-241.984 -346.848)"/>
  <path id="패스_236" data-name="패스 236" d="M341.63,393.9a1.2,1.2,0,0,1-.114-.333,2.9,2.9,0,0,1-.041-.341,2.63,2.63,0,0,1-.656.568,2.092,2.092,0,0,1-2.123.021,1.3,1.3,0,0,1-.59-1.021,1.462,1.462,0,0,1,.231-1.129,1.749,1.749,0,0,1,.82-.568,2.919,2.919,0,0,1,.842-.173,5.652,5.652,0,0,0,.833-.112c.138-.035.28-.076.426-.126s.216-.183.216-.4a.955.955,0,0,0-.252-.616,1.089,1.089,0,0,0-.871-.3,1.231,1.231,0,0,0-.9.279.783.783,0,0,0-.235.679h-.842a1.4,1.4,0,0,1,.539-1.316,2.317,2.317,0,0,1,1.435-.454,2.254,2.254,0,0,1,1.38.447,1.465,1.465,0,0,1,.6,1.249v2.815a1.715,1.715,0,0,0,.091.585c.06.165.094.253.1.268Zm-.155-2.612a.637.637,0,0,1-.185.12,1.461,1.461,0,0,1-.249.091,5.351,5.351,0,0,1-.706.12,2.785,2.785,0,0,0-.616.12,1.658,1.658,0,0,0-.576.332.67.67,0,0,0-.158.586.6.6,0,0,0,.345.521,1.328,1.328,0,0,0,.625.111,1.607,1.607,0,0,0,1.131-.512,1.313,1.313,0,0,0,.39-.838Z" transform="translate(-244.604 -349.117)"/>
  <path id="패스_237" data-name="패스 237" d="M351.257,391.758v-7.092h.815l.009,7.1Z" transform="translate(-251.869 -346.97)"/>
  <path id="패스_238" data-name="패스 238" d="M371.024,386.552a2.553,2.553,0,0,0-.525-.942,1.471,1.471,0,0,0-1.186-.448,1.6,1.6,0,0,0-1.406.764,3.655,3.655,0,0,0-.5,2.048,3.83,3.83,0,0,0,.5,2.1,1.59,1.59,0,0,0,1.406.785,1.416,1.416,0,0,0,1.176-.506,2.659,2.659,0,0,0,.543-1.095l.906-.011a4.178,4.178,0,0,1-.791,1.66,2.149,2.149,0,0,1-1.834.827,2.424,2.424,0,0,1-2.066-1.023,4.509,4.509,0,0,1-.751-2.74,4.388,4.388,0,0,1,.751-2.692,2.438,2.438,0,0,1,2.066-1.006,2.245,2.245,0,0,1,1.861.786,3.575,3.575,0,0,1,.773,1.5Z" transform="translate(-260.276 -346.754)"/>
  <path id="패스_239" data-name="패스 239" d="M385.119,389.337a3.143,3.143,0,0,1,.6,1.982,3.188,3.188,0,0,1-.6,1.993,2.126,2.126,0,0,1-3.306,0,3.192,3.192,0,0,1-.6-1.993,3.147,3.147,0,0,1,.6-1.982,2.144,2.144,0,0,1,3.306,0m-.643,3.41a2.443,2.443,0,0,0,.386-1.428,2.363,2.363,0,0,0-.386-1.411,1.22,1.22,0,0,0-2.023,0,2.391,2.391,0,0,0-.381,1.411,2.471,2.471,0,0,0,.381,1.428,1.2,1.2,0,0,0,2.023,0" transform="translate(-268.394 -349.117)"/>
  <path id="패스_240" data-name="패스 240" d="M397.363,393.9v-3.1a1.571,1.571,0,0,0-.244-.985.91.91,0,0,0-.751-.3,1.119,1.119,0,0,0-.884.423,1.542,1.542,0,0,0-.356,1.031v2.941l-.825-.012v-5.142h.815l.01.538a3.016,3.016,0,0,1,.7-.553,1.557,1.557,0,0,1,1.027-.165,1.313,1.313,0,0,1,1.038.7,2.429,2.429,0,0,1,.313,1.128v3.51Z" transform="translate(-275.616 -349.117)"/>
  <path id="패스_241" data-name="패스 241" d="M409.672,391.706a1.054,1.054,0,0,1,.229.794,1.588,1.588,0,0,1-.587,1.171,1.962,1.962,0,0,1-1.307.463,1.733,1.733,0,0,1-1.6-.69,2.554,2.554,0,0,1-.443-1.207h.833a1.12,1.12,0,0,0,.348.718,1.175,1.175,0,0,0,.838.285,1.288,1.288,0,0,0,.7-.174.713.713,0,0,0,.32-.5.437.437,0,0,0-.1-.376,1.323,1.323,0,0,0-.377-.289,2.394,2.394,0,0,0-.764-.269,3.959,3.959,0,0,1-.694-.174,1.635,1.635,0,0,1-.684-.482,1.215,1.215,0,0,1-.241-.858,1.54,1.54,0,0,1,.505-1.049,1.815,1.815,0,0,1,1.307-.458,1.634,1.634,0,0,1,1.369.568,1.723,1.723,0,0,1,.426,1.108h-.825a.854.854,0,0,0-1.015-.79.977.977,0,0,0-.7.2.594.594,0,0,0-.2.432.474.474,0,0,0,.191.442,2.1,2.1,0,0,0,.443.2,5.645,5.645,0,0,0,.7.173,2.186,2.186,0,0,1,.742.279,2.5,2.5,0,0,1,.6.481" transform="translate(-282.047 -349.147)"/>
  <path id="패스_242" data-name="패스 242" d="M420.811,394.156l.008-.632a1.815,1.815,0,0,1-.584.573,1.634,1.634,0,0,1-.9.248,1.567,1.567,0,0,1-1.083-.47,1.907,1.907,0,0,1-.5-1.457L417.74,389h.842v3.109a1.519,1.519,0,0,0,.28,1.007.914.914,0,0,0,.79.288,1.161,1.161,0,0,0,.837-.41,1.615,1.615,0,0,0,.33-1.085L420.811,389h.859v5.164Z" transform="translate(-288.546 -349.362)"/>
  <path id="패스_243" data-name="패스 243" d="M430.337,391.758v-7.092h.815l.01,7.1Z" transform="translate(-295.495 -346.97)"/>
  <path id="패스_244" data-name="패스 244" d="M436.454,392.224a.677.677,0,0,1-.426-.133,1.252,1.252,0,0,1-.287-.3,1.146,1.146,0,0,1-.161-.384,3.314,3.314,0,0,1-.04-.605v-2.887l-.561-.022v-.781l.561-.011v-1.6h.825l.008,1.6.634.011.019.8h-.653v2.759c0,.134,0,.247.009.339a.422.422,0,0,0,.126.26.411.411,0,0,0,.254.128,2.141,2.141,0,0,0,.254.022l.018.8Z" transform="translate(-298.056 -347.431)"/>
  <path id="패스_245" data-name="패스 245" d="M442.742,385.415v-.97h.815l.018.99Zm0,6.206v-5.185h.815l.018,5.185Z" transform="translate(-302.339 -346.848)"/>
  <path id="패스_246" data-name="패스 246" d="M451.538,393.9v-3.1a1.568,1.568,0,0,0-.245-.985.91.91,0,0,0-.752-.3,1.121,1.121,0,0,0-.882.423,1.543,1.543,0,0,0-.358,1.031v2.941l-.824-.012v-5.142h.817l.007.538a3.062,3.062,0,0,1,.7-.553,1.562,1.562,0,0,1,1.029-.165,1.316,1.316,0,0,1,1.036.7,2.42,2.42,0,0,1,.311,1.128v3.51Z" transform="translate(-305.503 -349.117)"/>
  <path id="패스_247" data-name="패스 247" d="M464.73,393.384a2.051,2.051,0,0,1-.662,1.749,2.343,2.343,0,0,1-1.439.5,2.044,2.044,0,0,1-1.523-.552,1.921,1.921,0,0,1-.587-1.24h.833a1.021,1.021,0,0,0,.333.66,1.322,1.322,0,0,0,.954.3,1.189,1.189,0,0,0,.954-.363,1.525,1.525,0,0,0,.313-1.027v-.538a2.3,2.3,0,0,1-.666.538,1.678,1.678,0,0,1-.8.2,1.912,1.912,0,0,1-1.507-.742,2.759,2.759,0,0,1-.63-1.849,2.725,2.725,0,0,1,.6-1.828,1.921,1.921,0,0,1,1.535-.713,1.809,1.809,0,0,1,.815.185,2.081,2.081,0,0,1,.652.511l.008-.5h.808Zm-1.168-1.08a1.929,1.929,0,0,0,.392-1.291,1.8,1.8,0,0,0-.392-1.265,1.3,1.3,0,0,0-1-.421,1.277,1.277,0,0,0-1,.421,1.829,1.829,0,0,0-.379,1.265,1.963,1.963,0,0,0,.379,1.291,1.235,1.235,0,0,0,1,.458,1.257,1.257,0,0,0,1-.458" transform="translate(-312.026 -349.07)"/>
  <path id="패스_248" data-name="패스 248" d="M159.029,307.429c0-3.78-2.634-6.843-5.882-6.843s-5.882,3.063-5.882,6.843,2.634,6.843,5.882,6.843,5.882-3.063,5.882-6.843" transform="translate(-139.335 -300.586)" fill="#87c323"/>
  <path id="패스_249" data-name="패스 249" d="M222.677,307.979c0-3.779-2.633-6.843-5.881-6.843s-5.882,3.064-5.882,6.843,2.633,6.845,5.882,6.845,5.881-3.065,5.881-6.845" transform="translate(-174.448 -300.889)" fill="#0087d2"/>
  <path id="패스_250" data-name="패스 250" d="M162.507,347.33a3.68,3.68,0,0,0-4.9-2.181c-.858.26-1.115-.157-1.189-.519v-2.922H156.4v-3.851a2.133,2.133,0,0,0-1.955-2.274H131.53a2.133,2.133,0,0,0-1.955,2.274V341.7c.064.579.285,1.9,1,2.321a16.568,16.568,0,0,0,1.953,1.317l-.017.012a5.339,5.339,0,0,1,1.225.838c1.957,1.805,2.534,4.754,1.288,6.58a3.336,3.336,0,0,1-4.1,1.1c0,.011.006.03.006.03-1.02-.511-1.294.214-1.359.811v6.47a2.134,2.134,0,0,0,1.955,2.274h7.74c.9.065,2.185.3,2.142,1.111,0,0,.227.454-1.136,1.511a3.257,3.257,0,0,0-.507,3.83,3.394,3.394,0,0,0,.637.916,4.815,4.815,0,0,0,2.834,1.483,8.255,8.255,0,0,0,2.334.186c3.238-.186,5.767-2.115,5.649-4.3v0c0-.083,0-.164,0-.248a2.878,2.878,0,0,0-.561-1.537,4.014,4.014,0,0,0-1.044-1.041,4.634,4.634,0,0,0-.435-.294h.019s-.941-.579-.569-1.2c0,0,.148-.309,1.123-.4h4.69a2.134,2.134,0,0,0,1.955-2.274v-2.715h.016v-4.371a.764.764,0,0,1,.967-.743c.052.01.105.01.157.018.018,0,.03,0,.049,0h0a4.11,4.11,0,0,0,2.292-.338,4.791,4.791,0,0,0,2.625-5.7" transform="translate(-129.575 -319.893)" fill="#0087d2"/>
  <path id="패스_251" data-name="패스 251" d="M218.432,335.583H195.517a2.133,2.133,0,0,0-1.955,2.274v4.085l0-.015,0,.017v.4c.067.4.367.949,1.494,1.081l-.008.032a4.8,4.8,0,0,1,4.172,3.272,6.5,6.5,0,0,1-3.562,7.731,5.553,5.553,0,0,1-.957.33l.056.017a1.474,1.474,0,0,0-1.194,1.475v4.891a2.135,2.135,0,0,0,1.955,2.275h22.916a2.134,2.134,0,0,0,1.956-2.275V337.857a2.133,2.133,0,0,0-1.956-2.274" transform="translate(-164.874 -319.893)" fill="#87c323"/>
  <path id="패스_252" data-name="패스 252" d="M193.565,349.733l0,.015v0l0-.017" transform="translate(-164.874 -327.699)" fill="#fff"/>
  <path id="패스_253" data-name="패스 253" d="M423.219,324.048a1.874,1.874,0,1,1,1.851,2.162,2.02,2.02,0,0,1-1.851-2.162" transform="translate(-291.569 -312.34)" fill="#f59600"/>
  <path id="패스_254" data-name="패스 254" d="M267.527,336.733h-1.433v-1.443h10.647v1.443h-1.433v7.812h1.54v1.468H265.985v-1.468h1.542Zm5.431,0H269.9v7.812h3.061Zm8.423,12.462a15.328,15.328,0,0,1-.128,2.164h-2.267V335.768a7.725,7.725,0,0,0-.213-1.943h2.608Z" transform="translate(-204.828 -318.923)"/>
  <path id="패스_255" data-name="패스 255" d="M324.957,345.543H307V344.1h17.958Zm-4.553-8.728v3.63h1.56v1.444H309.991v-1.444h1.563v-3.63H310.1v-1.442h11.754v1.442Zm1.111,19.153h-10.6c-.244,0-.367-.133-.367-.4v-2.733a8.784,8.784,0,0,0-.148-1.644h8.639v-1.967h-8.594v-1.445h10.967v4.7H312.9v2.061h8.611Zm-3.374-19.153h-4.325v3.632h4.325Z" transform="translate(-227.454 -319.777)"/>
  <path id="패스_256" data-name="패스 256" d="M364.742,345.167v-9.4a7.728,7.728,0,0,0-.238-1.94h2.626v5.895h2.67v1.471h-2.67V349.2a14.693,14.693,0,0,1-.148,2.162h-2.24v-4.946a11.611,11.611,0,0,1-3.64.548H353.17a.323.323,0,0,1-.364-.371v-4.479a9.365,9.365,0,0,0-.147-1.692h6.733v-3.685h-6.7v-1.443h9.068v6.472h-6.582v3.782h6.178a13.774,13.774,0,0,0,3.384-.378" transform="translate(-252.643 -318.923)"/>
  <path id="패스_257" data-name="패스 257" d="M406.942,341.376a4.737,4.737,0,0,1-1.647,3.613,5.811,5.811,0,0,1-7.814,0,4.845,4.845,0,0,1,0-7.261,5.808,5.808,0,0,1,7.814,0,4.781,4.781,0,0,1,1.647,3.648m-2.658,0a4.423,4.423,0,0,0-.854-2.777,2.5,2.5,0,0,0-2.044-1.116,2.533,2.533,0,0,0-2.043,1.116,4.931,4.931,0,0,0-.013,5.542,2.469,2.469,0,0,0,4.1,0,4.361,4.361,0,0,0,.854-2.766m6.7,7.828a15.381,15.381,0,0,1-.127,2.157h-2.264V335.769a7.709,7.709,0,0,0-.213-1.941h2.6Z" transform="translate(-276.467 -318.924)"/>
  <path id="패스_258" data-name="패스 258" d="M452.711,350.37H435.744v-1.552h16.967Zm-3.428-13.051v5.843h1.6v1.469H438.567v-1.469h1.606v-5.843h-1.495v-1.471h12.1v1.471Zm-2.295,0h-4.53v5.844h4.53Z" transform="translate(-298.478 -320.039)"/>  
</svg>
