<svg xmlns="http://www.w3.org/2000/svg"  viewBox="0 0 1192 420">
	<defs>
		<mask id="theMask" maskUnits="userSpaceOnUse">
			<line class="line1"  fill="none" stroke="#aaa" stroke-miterlimit="10" stroke-width="3" x1="914" y1="198.3" x2="483" y2="404.3"/>
			<line class="line2"  fill="none" stroke="#aaa" stroke-miterlimit="10" stroke-width="3" x1="282" y1="198.3" x2="499" y2="1.3"/>
			<line class="line3"  fill="none" stroke="#aaa" stroke-miterlimit="10" stroke-width="3" x1="487" y1="6.3" x2="488" y2="198.3"/>
			<line class="line4"  fill="none" stroke="#aaa" stroke-miterlimit="10" stroke-width="3" x1="703" y1="6.3" x2="704" y2="198.3"/>
			<line class="line5"  fill="none" stroke="#aaa" stroke-miterlimit="10" stroke-width="3" x1="914" y1="198.3" x2="697" y2="6.3"/>
			<line class="line6"  fill="none" stroke="#aaa" stroke-miterlimit="10" stroke-width="3" x1="914" y1="198.3" x2="1131" y2="198.3"/>
			<line class="line7"  fill="none" stroke="#aaa" stroke-miterlimit="10" stroke-width="3" x1="914" y1="198.3" x2="910" y2="16.3"/>
			<line class="line8"  fill="none" stroke="#aaa" stroke-miterlimit="10" stroke-width="3" x1="914" y1="198.3" x2="697" y2="198.3"/>
			<line class="line9"  fill="none" stroke="#aaa" stroke-miterlimit="10" stroke-width="3" x1="914" y1="198.3" x2="912" y2="391.3"/>
			<line class="line10" fill="none" stroke="#aaa" stroke-miterlimit="10" stroke-width="3" x1="914" y1="198.3" x2="713" y2="391.3"/>
			<line class="line11" fill="none" stroke="#aaa" stroke-miterlimit="10" stroke-width="3" x1="914" y1="6.3" x2="1131" y2="198.3"/>
			<line class="line12" fill="none" stroke="#aaa" stroke-miterlimit="10" stroke-width="3" x1="721" y1="226.8" x2="938" y2="418.8"/>
			<line class="line13" fill="none" stroke="#aaa" stroke-miterlimit="10" stroke-width="3" x1="916" y1="404.3" x2="1131" y2="198.3"/>
			<line class="line14" fill="none" stroke="#aaa" stroke-miterlimit="10" stroke-width="3" x1="487" y1="6.3" x2="270" y2="6.3"/>
			<line class="line15" fill="none" stroke="#aaa" stroke-miterlimit="10" stroke-width="3" x1="914" y1="6.3" x2="697" y2="6.3"/>
			<line class="line16" fill="none" stroke="#aaa" stroke-miterlimit="10" stroke-width="3" x1="79" y1="223.3" x2="280" y2="391.3"/>
			<line class="line17" fill="none" stroke="#aaa" stroke-miterlimit="10" stroke-width="3" x1="282" y1="198.3" x2="499" y2="198.3"/>
			<line class="line18" fill="none" stroke="#aaa" stroke-miterlimit="10" stroke-width="3" x1="282" y1="198.3" x2="278" y2="16.3"/>
			<line class="line19" fill="none" stroke="#aaa" stroke-miterlimit="10" stroke-width="3" x1="282" y1="198.3" x2="65" y2="198.3"/>
			<line class="line20" fill="none" stroke="#aaa" stroke-miterlimit="10" stroke-width="3" x1="282" y1="198.3" x2="280" y2="391.3"/>
		</mask>
	</defs>
	<g id="maskReveal" mask="url(#theMask)">
		<line class="line1"  fill="none" stroke="#aaa" stroke-miterlimit="10" stroke-width="1" stroke-dasharray="2 5" x1="914" y1="198.3" x2="483" y2="404.3"/>
		<line class="line2"  fill="none" stroke="#aaa" stroke-miterlimit="10" stroke-width="1" stroke-dasharray="2 5" x1="282" y1="198.3" x2="499" y2="1.3"/>
		<line class="line3"  fill="none" stroke="#aaa" stroke-miterlimit="10" stroke-width="1" stroke-dasharray="2 5" x1="487" y1="6.3" x2="488" y2="198.3"/>
		<line class="line4"  fill="none" stroke="#aaa" stroke-miterlimit="10" stroke-width="1" stroke-dasharray="2 5" x1="703" y1="6.3" x2="704" y2="198.3"/>
		<line class="line5"  fill="none" stroke="#aaa" stroke-miterlimit="10" stroke-width="1" stroke-dasharray="2 5" x1="914" y1="198.3" x2="697" y2="6.3"/>
		<line class="line6"  fill="none" stroke="#aaa" stroke-miterlimit="10" stroke-width="1" stroke-dasharray="2 5" x1="914" y1="198.3" x2="1131" y2="198.3"/>
		<line class="line7"  fill="none" stroke="#aaa" stroke-miterlimit="10" stroke-width="1" stroke-dasharray="2 5" x1="914" y1="198.3" x2="910" y2="16.3"/>
		<line class="line8"  fill="none" stroke="#aaa" stroke-miterlimit="10" stroke-width="1" stroke-dasharray="2 5" x1="914" y1="198.3" x2="697" y2="198.3"/>
		<line class="line9"  fill="none" stroke="#aaa" stroke-miterlimit="10" stroke-width="1" stroke-dasharray="2 5" x1="914" y1="198.3" x2="912" y2="391.3"/>
		<line class="line10" fill="none" stroke="#aaa" stroke-miterlimit="10" stroke-width="1" stroke-dasharray="2 5" x1="914" y1="198.3" x2="713" y2="391.3"/>
		<line class="line11" fill="none" stroke="#aaa" stroke-miterlimit="10" stroke-width="1" stroke-dasharray="2 5" x1="914" y1="6.3" x2="1131" y2="198.3"/>
		<line class="line12" fill="none" stroke="#aaa" stroke-miterlimit="10" stroke-width="1" stroke-dasharray="2 5" x1="721" y1="226.8" x2="938" y2="418.8"/>
		<line class="line13" fill="none" stroke="#aaa" stroke-miterlimit="10" stroke-width="1" stroke-dasharray="2 5" x1="916" y1="404.3" x2="1131" y2="198.3"/>
		<line class="line14" fill="none" stroke="#aaa" stroke-miterlimit="10" stroke-width="1" stroke-dasharray="2 5" x1="487" y1="6.3" x2="270" y2="6.3"/>
		<line class="line15" fill="none" stroke="#aaa" stroke-miterlimit="10" stroke-width="1" stroke-dasharray="2 5" x1="914" y1="6.3" x2="697" y2="6.3"/>
		<line class="line16" fill="none" stroke="#aaa" stroke-miterlimit="10" stroke-width="1" stroke-dasharray="2 5" x1="79" y1="223.3" x2="280" y2="391.3"/>
		<line class="line17" fill="none" stroke="#aaa" stroke-miterlimit="10" stroke-width="1" stroke-dasharray="2 5" x1="282" y1="198.3" x2="499" y2="198.3"/>
		<line class="line18" fill="none" stroke="#aaa" stroke-miterlimit="10" stroke-width="1" stroke-dasharray="2 5" x1="282" y1="198.3" x2="278" y2="16.3"/>
		<line class="line19" fill="none" stroke="#aaa" stroke-miterlimit="10" stroke-width="1" stroke-dasharray="2 5" x1="282" y1="198.3" x2="65" y2="198.3"/>
		<line class="line20" fill="none" stroke="#aaa" stroke-miterlimit="10" stroke-width="1" stroke-dasharray="2 5" x1="282" y1="198.3" x2="280" y2="391.3"/>
	</g>
</svg>
