<svg xmlns="http://www.w3.org/2000/svg" width="157" height="36.364" viewBox="0 0 157 36.364">
  <g id="그룹_78" data-name="그룹 78" transform="translate(-487.564 -283.314)">
    <g id="그룹_75" data-name="그룹 75" transform="translate(487.564 283.314)">
      <path id="패스_267" data-name="패스 267" d="M521.193,284.362l-.008.005-1.451.511.543,3.6v.008l.005.005,5.974.4v7.465a33.715,33.715,0,0,1-.767,5.692,31.7,31.7,0,0,1-1.166,4.26c-.1.258-.194.522-.3.764a21.883,21.883,0,0,1-1.182,2.2c-.069.112-.13.221-.2.327q-.184.311-.367.615c-.192.306-.359.631-.546.948-.573.956-1.052,1.7-1.4,2.215l4.63,1.549,1.121-1.621c.737-1.046,1.568-2.385,2.473-3.983a29.481,29.481,0,0,0,2.1-5.6l.136-.437a24.077,24.077,0,0,0,1.121-7.055l.463-11.85v-.011H521.193Z" transform="translate(-434.087 -281.572)" fill="#32aeb2"/>
      <path id="패스_268" data-name="패스 268" d="M532.515,284.357h-.725V285.7h.01l.71.646.018,10.086-1.9.628.1-12.661v-.042H524.8V285.7h.008l.707.646.4,28.49v.008h.01l3.983-.325h.01v-.01l.663-12.624,1.968-.628.465,13.579v.008h.01l3.975-.325H537v-.01l.819-30.14v-.012h-5.3Z" transform="translate(-425.673 -281.58)" fill="#32aeb2"/>
      <path id="패스_269" data-name="패스 269" d="M532.1,284.362l-.005.005-1.443.5.538,3.6v.011h.013l8.208.4v7.462a21.732,21.732,0,0,1-.807,5.695,31.18,31.18,0,0,1-1.789,5.018,29.872,29.872,0,0,1-2.252,4.095c-.714,1.038-1.241,1.741-1.581,2.167l4.79,1.6h0c.351-.349,1.323-1.611,1.336-1.621.141-.194.264-.383.4-.575.17-.237.335-.479.5-.716.1-.146.2-.285.3-.437.136-.2.274-.415.415-.628.056-.083.106-.168.16-.25.128-.2.255-.394.378-.6.162-.261.33-.511.487-.777a29.875,29.875,0,0,0,2.6-6.046,23.044,23.044,0,0,0,1.177-7.05l.469-11.855v-.005H532.1Z" transform="translate(-415.944 -281.572)" fill="#32aeb2"/>
      <path id="패스_270" data-name="패스 270" d="M545.112,284.362h-8.1v.01l.062,1.363v.01h.008l1.378.681.936,28.484v.008h.01l4.883-.416h.01v-.013l.827-30.12v-.007Z" transform="translate(-405.372 -281.572)" fill="#32aeb2"/>
      <path id="패스_271" data-name="패스 271" d="M534.59,302.1v-.01l1.019-5.015v-.008l-.01-.063-10.946.5.405-5.43v-.012h-6.786v.012l.06.9v.01h.008l1.279.453.036,4.355-9.825.356h-.013v.008l-.811,3.931v.01H534.59Z" transform="translate(-451.919 -268.758)" fill="#32aeb2"/>
      <path id="패스_272" data-name="패스 272" d="M511.186,302.664v.012h.008l3.791,1.462H515v-.013l.962-1.053h13.975l.952,1.053,0,.013h.013l3.759-1.462h.01v-.012l1.292-17.577.042-.711-.042.711.049-.707,0-.01H528.86l0,.007.062,1.366v.01h.008l1.373.681-.148,4.2-3.648.629H526.5v.006l1.017,3.561,0,.012h.01l2.493-.209-.133,3.647-4.4.575V284.357h-.01l-5.3.012h-.847v.007l.06,1.366v.01h.01l1.389.681-.172,4.2-3.8.629h-.016l0,.006,1.118,3.561.005.012h.008l2.519-.209-.182,4.021-4.331.6-.19-14.874v-.007H508.75v.007l.06,1.366v.01h.01l1.383.681Z" transform="translate(-452.346 -281.58)" fill="#32aeb2"/>
      <path id="패스_273" data-name="패스 273" d="M501.289,300.451h10.356a2.764,2.764,0,0,0,2.721-2.8V287.4a2.761,2.761,0,0,0-2.721-2.8H501.289a2.761,2.761,0,0,0-2.724,2.8V297.65A2.765,2.765,0,0,0,501.289,300.451Zm8.213-12.127h.013v7.468l-6.086.932h-.013v-7.476Z" transform="translate(-469.277 -281.181)" fill="#32aeb2"/>
      <path id="패스_274" data-name="패스 274" d="M521.084,291.413h-4.8v.012l.057.9v.008h.01l.785.437-.034.827H507.026v.012l.814,3.145v.01h.008l9.063.6-.081,1.413-11.406.419-.6-7.77v-.012h-5.967v.012l.06.9v.008h.01l.772.437,1.355,10.42v.01H505.5v-.624h11.161l-.039.613,0,.01h4.547v-.01l1.323-11.766v-.012h-1.4Z" transform="translate(-468.791 -269.851)" fill="#32aeb2"/>
      <path id="패스_275" data-name="패스 275" d="M507.937,284.362H506.1l0,.005.069,1.368v.008h.005l1.749.644v4.664l-2.984.421h-.013l0,.013,1.2,3.778v.005h1.792v6.2h.013l4.734-.453h.013v-.008l.94-16.634v-.011h-5.687Zm-3,7.124Z" transform="translate(-458.703 -281.572)" fill="#32aeb2"/>
      <path id="패스_276" data-name="패스 276" d="M488.88,290.763l.011,0,4.989-.438-5.785,6.518-.008.012.016.008,4.259,2.124.008,0,0-.006,4.656-5.565,4.448,5.551,0,0h.008l3.632-2.465.013-.007-.013-.012-4.919-6.757,4.272-.4,1.014-3.306V286h-.011l-17.809.248h-.01v.006l1.224,4.491Z" transform="translate(-487.412 -278.841)" fill="#32aeb2"/>
      <path id="패스_277" data-name="패스 277" d="M487.569,291.4h-.005v.008l.61,4.5v.011h.011l6.688-.208,1.222,7.923v.011h.013l1-.178,3.192-.575.069-7.18,6.113-.21h.011v-.011l1.014-3.631v-.008H507.5Zm0,.008.429.011Z" transform="translate(-487.564 -269.879)" fill="#32aeb2"/>
      <path id="패스_278" data-name="패스 278" d="M494.692,284.357h-.016l0,.013.061,1.366v.008h.008l1.4.682.325,28.492v.008h.011l4.851-.415h.008V314.5l.815-30.127v-.013h-7.46Z" transform="translate(-475.742 -281.58)" fill="#32aeb2"/>
      <path id="패스_279" data-name="패스 279" d="M491.782,288.752l6.731-.4.762-2.441v-.016l-.013,0-9.362-2.569-.016-.008v.023l-.564,2.754-.005.016.013,0Z" transform="translate(-484.654 -283.314)" fill="#32aeb2"/>
      <path id="패스_280" data-name="패스 280" d="M494.34,295.716v0l-3.19.575Z" transform="translate(-481.604 -262.703)" fill="#32aeb2"/>
    </g>
    <g id="그룹_77" data-name="그룹 77" transform="translate(631.505 308.8)">
      <g id="그룹_76" data-name="그룹 76">
        <path id="패스_281" data-name="패스 281" d="M545.262,294.494l-2.748-1.162-.213.171-.671.546.494,2.925,4.168,2.678.426-1.014Z" transform="translate(-541.63 -292.146)" fill="#32aeb2" opacity="0.8"/>
        <path id="패스_282" data-name="패스 282" d="M546.706,294.551l-2.018,4.828.58,1.656-1.006-.642-1.412,3.372,8.7-4.9,1.107-4.818-1.287-1.162Z" transform="translate(-539.601 -292.887)" fill="#32aeb2"/>
        <path id="패스_283" data-name="패스 283" d="M543.807,295.325l-.426,1.014,1.006.642Z" transform="translate(-538.719 -288.833)" fill="#32aeb2"/>
      </g>
    </g>
  </g>
</svg>
