<svg xmlns="http://www.w3.org/2000/svg" width="110.287" height="77.713" viewBox="0 0 110.287 77.713">
  <rect id="사각형_546" data-name="사각형 546" width="55.144" height="55.144" transform="translate(55.143)" fill="#24408c"/>
  <path id="패스_429" data-name="패스 429" d="M49.6,29.76A21.292,21.292,0,1,1,28.309,8.468,21.291,21.291,0,0,1,49.6,29.76" transform="translate(-1.379 -1.664)" fill="#24408c"/>
  <path id="패스_430" data-name="패스 430" d="M91.191,9.469v8.585h6.464V49.533h9.785V9.376Z" transform="translate(-17.922 -1.843)" fill="#fff"/>
  <path id="패스_431" data-name="패스 431" d="M42.406,32.444a11.57,11.57,0,1,1-11.57-11.57,11.57,11.57,0,0,1,11.57,11.57" transform="translate(-3.786 -4.103)" fill="#fff"/>
  <rect id="사각형_547" data-name="사각형 547" width="110.281" height="22.709" transform="translate(0 55.004)"/>
  <rect id="사각형_548" data-name="사각형 548" width="2.861" height="11.585" transform="translate(14.926 60.79)" fill="#fff"/>
  <path id="패스_432" data-name="패스 432" d="M42.731,75.545h-.505a3.14,3.14,0,0,0-3.14,3.141v5.722a3.139,3.139,0,0,0,3.14,3.138h.505a3.14,3.14,0,0,0,3.139-3.14V78.686a3.141,3.141,0,0,0-3.139-3.141m.509,9.3a.762.762,0,0,1-1.524,0h0V78.153a.762.762,0,0,1,1.524,0Z" transform="translate(-7.682 -14.848)" fill="#fff"/>
  <path id="패스_433" data-name="패스 433" d="M67.287,87.6c-.1,0-.207,0-.31-.008a3.261,3.261,0,0,1-3.214-2.031l-.054-.356-.024-2.444H66.3v1.909a.843.843,0,0,0,.868.817.851.851,0,0,0,.362-.094s.956-.569-.059-1.768l-3.294-3.186a3.032,3.032,0,0,1-.045-3.768,3.453,3.453,0,0,1,2.937-1.107s2.634-.139,3.309,1.8c0,0,.042.245.056.337l.022,2.189H67.839V78.039s-.106-.907-1.184-.508c0,0-.892.518-.08,1.553L69.9,82.13a2.741,2.741,0,0,1,.665,2.061A3.343,3.343,0,0,1,67.287,87.6" transform="translate(-12.48 -14.847)" fill="#fff"/>
  <path id="패스_434" data-name="패스 434" d="M92.395,82.8v4.462H89.256V82.8L87.132,75.9h2.709l1.014,4.184.956-4.185h2.706Z" transform="translate(-17.125 -14.918)" fill="#fff"/>
  <path id="패스_435" data-name="패스 435" d="M114.4,87.6c-.1,0-.209,0-.313-.008a3.261,3.261,0,0,1-3.214-2.031l-.054-.356-.024-2.444h2.615v1.909a.843.843,0,0,0,.868.817.851.851,0,0,0,.362-.094s.957-.569-.059-1.768l-3.294-3.186a3.034,3.034,0,0,1-.045-3.768,3.457,3.457,0,0,1,2.938-1.107s2.632-.139,3.309,1.8c0,0,.04.245.054.337l.022,2.189h-2.617V78.039s-.109-.907-1.184-.508c0,0-.893.518-.08,1.553l3.325,3.046a2.74,2.74,0,0,1,.664,2.061A3.342,3.342,0,0,1,114.4,87.6" transform="translate(-21.738 -14.847)" fill="#fff"/>
  <rect id="사각형_549" data-name="사각형 549" width="110.287" height="77.713" fill="none"/>
</svg>
