<svg xmlns="http://www.w3.org/2000/svg" width="207.74" height="52.058" viewBox="0 0 207.74 52.058">
	<path id="패스_449" data-name="패스 449" d="M383.881,7.59c.152,1.11.877,3.063,2.547,3.063a1.7,1.7,0,0,0,1.705-1.827,2.744,2.744,0,0,0-1.25-2.146l-.474-.369a4.108,4.108,0,0,1-1.921-3.134A3.19,3.19,0,0,1,387.981,0a4.943,4.943,0,0,1,1.778.321c.289.1.5.207.664.268-.086.664-.086,1.507-.107,2.548l-.557.053c-.134-1.043-.522-2.525-1.9-2.525a1.585,1.585,0,0,0-1.534,1.711c0,.814.438,1.345,1.285,1.987l.5.374a4.02,4.02,0,0,1,2,3.236c0,2.093-1.742,3.362-3.87,3.362a4.333,4.333,0,0,1-2.892-1.024c0-.377.028-1.314-.019-2.669Z" transform="translate(-242.864)" fill="#00134c"/>
	<path id="패스_450" data-name="패스 450" d="M408.294,9.808a4.871,4.871,0,0,1-2.775,1.842c-.483,0-.829-.334-.492-1.813l.823-3.721c.093-.422.119-.579,0-.579a3.19,3.19,0,0,0-.954.557l-.241-.439a5.731,5.731,0,0,1,2.89-1.782c.477,0,.56.659.322,1.663l-.907,3.849c-.111.5-.067.655.054.655a2.427,2.427,0,0,0,1.008-.655Zm.218-8.253a1.255,1.255,0,0,1-1.2,1.291c-.582,0-.907-.383-.893-1.018a1.243,1.243,0,0,1,1.19-1.273.9.9,0,0,1,.9,1" transform="translate(-256.377 -0.352)" fill="#00134c"/>
	<path id="패스_451" data-name="패스 451" d="M424.72,15.587c-1.186,1.333-2.137,1.8-2.725,1.8-.439,0-.768-.335-.472-1.8.271-1.148.52-2.3.8-3.455.191-.849.074-1.014-.1-1.033-.483,0-1.949,1.715-2.487,2.753-.231.9-.48,2.078-.684,3.152a10.276,10.276,0,0,0-1.8.357l-.124-.146c.394-1.693.8-3.484,1.192-5.407.118-.5.1-.643,0-.643a2.663,2.663,0,0,0-1.024.665l-.209-.5a4.759,4.759,0,0,1,2.694-1.724c.452,0,.664.515.318,2.106l-.162.849h.02a10.488,10.488,0,0,1,2.3-2.421,2.39,2.39,0,0,1,1.317-.535c.536,0,1.046.328.563,2.57-.222.978-.449,2-.665,2.987-.1.42-.077.61.06.61a2.884,2.884,0,0,0,.964-.69Z" transform="translate(-264.247 -6.088)" fill="#00134c"/>
	<path id="패스_452" data-name="패스 452" d="M445.812,15.456a4.735,4.735,0,0,1-3.339,1.931c-1.263,0-1.96-.894-1.96-2.514a5.52,5.52,0,0,1,1.715-4.016,4.611,4.611,0,0,1,2.747-1.248c.754,0,1.419.385,1.419.979a1.269,1.269,0,0,1-.7,1.039.282.282,0,0,1-.445-.094c-.454-.708-.884-1.034-1.285-1.034-.283,0-.56.235-.792.773a7.447,7.447,0,0,0-.6,3.082c0,1.218.385,1.7,1,1.7a3.617,3.617,0,0,0,1.934-1.066Z" transform="translate(-279.095 -6.088)" fill="#00134c"/>
	<path id="패스_453" data-name="패스 453" d="M463.257,15.29c-1.428,1.572-2.64,2.1-3.743,2.1-.923,0-1.959-.544-1.959-2.513a5.513,5.513,0,0,1,1.86-4.185,4.528,4.528,0,0,1,2.6-1.079,1.45,1.45,0,0,1,1.638,1.456c0,1.7-2.492,2.534-4.08,2.975-.01.182-.01.314-.01.433,0,.839.3,1.564,1.1,1.564a3.759,3.759,0,0,0,2.3-1.215Zm-2.423-4.736a4.153,4.153,0,0,0-1.2,2.859c1.7-.553,2.276-1.253,2.276-2.141,0-.65-.4-.9-.616-.9a.871.871,0,0,0-.462.179" transform="translate(-289.893 -6.088)" fill="#00134c"/>
	<path id="패스_454" data-name="패스 454" d="M487.865,9.757c-.265,1.339-.2,1.5,1.2,1.645l-.125.533h-4.854l.1-.533c1.294-.144,1.4-.306,1.659-1.645l1.079-5.727c.2-1.066.06-1.193-.766-1.246l-.494-.038.141-.524a19.673,19.673,0,0,0,3.6-.875Z" transform="translate(-306.704 -0.853)" fill="#00134c"/>
	<path id="패스_455" data-name="패스 455" d="M510.256,5.056A7.22,7.22,0,0,1,505.6,11.73a9.926,9.926,0,0,1-2.566.514l-.118-.559a6.846,6.846,0,0,0,4.829-4.421l-.853.418a2.062,2.062,0,0,1-.838.265,2.57,2.57,0,0,1-2.648-2.783,3.882,3.882,0,0,1,3.821-3.817c1.937,0,3.029,1.444,3.029,3.709m-4.766-.4c0,1.276.544,2.2,1.619,2.2a1.716,1.716,0,0,0,.8-.258,6.7,6.7,0,0,0,.308-2.265c0-.935-.254-2.315-1.218-2.315-.916,0-1.511,1.446-1.511,2.639" transform="translate(-318.632 -0.854)" fill="#00134c"/>
	<path id="패스_456" data-name="패스 456" d="M533.58,1.687a7.855,7.855,0,0,0-1.768.558,6.461,6.461,0,0,0-3.3,3.435l.005.038.808-.389a2.542,2.542,0,0,1,.913-.257,2.608,2.608,0,0,1,2.63,2.922,3.973,3.973,0,0,1-3.922,3.973c-1.908,0-3.078-1.491-3.078-3.579a7.143,7.143,0,0,1,5.249-6.809,17.457,17.457,0,0,1,2.347-.523Zm-5.3,4.711a7.061,7.061,0,0,0-.366,2.393c0,1.187.449,2.522,1.361,2.522,1.1,0,1.524-1.739,1.524-2.848,0-1.464-.576-2.283-1.631-2.283a1.837,1.837,0,0,0-.888.217" transform="translate(-333.175 -0.669)" fill="#00134c"/>
	<path id="패스_457" data-name="패스 457" d="M554.246,5.056A7.225,7.225,0,0,1,549.6,11.73a10.039,10.039,0,0,1-2.58.514l-.108-.559a6.8,6.8,0,0,0,4.814-4.421l-.853.418a2.08,2.08,0,0,1-.837.265,2.567,2.567,0,0,1-2.64-2.783,3.886,3.886,0,0,1,3.81-3.817c1.95,0,3.041,1.444,3.041,3.709m-4.765-.4c0,1.276.545,2.2,1.616,2.2a1.634,1.634,0,0,0,.792-.258,6.648,6.648,0,0,0,.331-2.265c0-.935-.258-2.315-1.247-2.315-.91,0-1.492,1.446-1.492,2.639" transform="translate(-346.505 -0.854)" fill="#00134c"/>
	<path id="패스_458" data-name="패스 458" d="M45.571,71.67l-.127-.128-2.723-2.713A24.2,24.2,0,0,1,29.575,72.59,23.2,23.2,0,0,1,18,69.153l-.634.631A26.41,26.41,0,0,0,33.1,75.019,22.908,22.908,0,0,0,45.571,71.67" transform="translate(-11.005 -43.608)" fill="#0058a1"/>
	<path id="패스_459" data-name="패스 459" d="M47.317,35.539l-3.445,3.448a8,8,0,0,0,3.414.741,9.628,9.628,0,0,0,3.6-.617Z" transform="translate(-27.796 -22.517)" fill="#0058a1"/>
	<path id="패스_460" data-name="패스 460" d="M49.158,48.21,47.8,46.857l-1.04-1.041a11.787,11.787,0,0,1-6.66,1.956,11.612,11.612,0,0,1-2.513-.321L37.048,48a17.446,17.446,0,0,0,6.482,1.428,12.322,12.322,0,0,0,5.628-1.213" transform="translate(-23.472 -29.027)" fill="#0058a1"/>
	<path id="패스_461" data-name="패스 461" d="M47.019,63.339l-.455-.458-2.236-2.23c-4.463,2.358-6.352,2.962-10.3,2.962A21.178,21.178,0,0,1,25.2,61.363l-.579.579A23.737,23.737,0,0,0,36.981,65.9a21.9,21.9,0,0,0,10.039-2.557" transform="translate(-15.602 -38.426)" fill="#0058a1"/>
	<path id="패스_462" data-name="패스 462" d="M44.336,80.376l-3.08-3.086A28.073,28.073,0,0,1,25.441,81.96a27.091,27.091,0,0,1-14.784-4.675l-.5.5a28.23,28.23,0,0,0,18.76,6.746,27.053,27.053,0,0,0,15.418-4.153" transform="translate(-6.436 -48.965)" fill="#0058a1"/>
	<path id="패스_463" data-name="패스 463" d="M32.528,93.479l6.507-6.508-.705-.706-.137-.144c-5.668,3.563-11.229,5.933-18.2,5.933A33.056,33.056,0,0,1,1.06,85.92L0,86.976l19.514,19.519,5.207-5.207Z" transform="translate(0 -54.436)" fill="#0058a1"/>
	<path id="패스_464" data-name="패스 464" d="M48.193,55.437l-2.672-2.676a15.653,15.653,0,0,1-8.509,2.431A16.459,16.459,0,0,1,31.6,54.048l-.528.531A16.654,16.654,0,0,0,40.435,57.1a17.175,17.175,0,0,0,7.758-1.666" transform="translate(-19.689 -33.428)" fill="#0058a1"/>
	<path id="패스_465" data-name="패스 465" d="M192.864,65.179a7.831,7.831,0,0,0-3.649-2.142,8.168,8.168,0,0,0,2.538-1.708,6.215,6.215,0,0,0,1.771-4.466,6.01,6.01,0,0,0-2.468-5,11,11,0,0,0-6.87-1.966H171.972V78.42H184.86c3.255,0,5.776-.808,7.492-2.4a7.338,7.338,0,0,0,2.4-5.732,7.059,7.059,0,0,0-1.889-5.111m-6.025-5.154a4.834,4.834,0,0,1-3.425,1.158h-5.935V53.606h5.112a6.353,6.353,0,0,1,4.08,1.186,3.129,3.129,0,0,1,1.368,2.606,3.359,3.359,0,0,1-1.2,2.626m-9.361,4.851h5.064c2.411,0,3.657.343,4.949,1.368a3.839,3.839,0,0,1,1.761,3.45,4.147,4.147,0,0,1-1.7,3.562,7,7,0,0,1-4.647,1.455h-5.429Z" transform="translate(-108.956 -31.614)" fill="#00134c"/>
	<path id="패스_466" data-name="패스 466" d="M128.189,70.07a3.831,3.831,0,0,1-1.39,3.245,6.014,6.014,0,0,1-3.839,1.279h-3.993v3.763h4.052c3.191,0,6.049-.63,7.654-1.683a6.9,6.9,0,0,0,3.041-6.152V49.713h-5.525Z" transform="translate(-75.374 -31.497)" fill="#00134c"/>
	<path id="패스_467" data-name="패스 467" d="M303.888,56.341h-6.076V58.76h6.076V69.29h4.3V49.74h-4.3Z" transform="translate(-188.684 -31.514)" fill="#00134c"/>
	<path id="패스_468" data-name="패스 468" d="M264.879,60.217a44.532,44.532,0,0,1,6.173,6.521l.172.219,2.742-2.964-.139-.16a46.337,46.337,0,0,0-7.516-6.142,13.847,13.847,0,0,0,1.132-4.542h5.232v-2.4H257.149v2.4h5.783c-.105,5.949-4.237,9.08-6.721,10.962-.251.191-.486.369-.7.535l-.176.137,1.482,2.117.185-.1a22.929,22.929,0,0,0,7.873-6.584" transform="translate(-161.775 -32.152)" fill="#00134c"/>
	<path id="패스_469" data-name="패스 469" d="M273.252,107.372A.951.951,0,0,1,273,106.6V99.651h-4.306v7.979a2.4,2.4,0,0,0,.532,1.764,2.543,2.543,0,0,0,1.892.6h18.628v-2.407h-15.45a1.928,1.928,0,0,1-1.04-.217" transform="translate(-170.234 -63.136)" fill="#00134c"/>
	<path id="패스_470" data-name="패스 470" d="M337.709,91.516h11.379v2.467H340.81v2.426h15.259a1.77,1.77,0,0,1,1.037.205.966.966,0,0,1,.251.786v5.911h4.31v-6.96a2.4,2.4,0,0,0-.535-1.754,2.529,2.529,0,0,0-1.883-.614H353.4V91.516h11.362V89.1H337.709Z" transform="translate(-213.962 -56.45)" fill="#00134c"/>
	<path id="패스_471" data-name="패스 471" d="M348.069,62.035c1.587.652,4.457.983,8.534.983s6.941-.331,8.531-.983a2.537,2.537,0,0,0,1.9-2.35V50.747h-4.38v4.2H350.556v-4.2h-4.383v8.939a2.533,2.533,0,0,0,1.9,2.35M362.65,59.3c0,.251-.1.617-.9.88a20.866,20.866,0,0,1-5.144.43,21.266,21.266,0,0,1-5.151-.425c-.8-.265-.9-.63-.9-.885V57.363H362.65Z" transform="translate(-219.324 -32.152)" fill="#00134c"/>
	<path id="패스_472" data-name="패스 472" d="M433.255,109.132a.943.943,0,0,1-.251-.773v-5.93h-4.313v6.961a2.367,2.367,0,0,0,.541,1.764,2.5,2.5,0,0,0,1.886.6h18.43v-2.407H434.3a1.908,1.908,0,0,1-1.041-.217" transform="translate(-271.605 -64.896)" fill="#00134c"/>
	<path id="패스_473" data-name="패스 473" d="M434.818,60.435a12.783,12.783,0,0,0,13.465,0,5.391,5.391,0,0,0,0-8.849,10.887,10.887,0,0,0-6.725-1.873,11,11,0,0,0-6.74,1.873,5.43,5.43,0,0,0,0,8.849m10.293-1.72a5.774,5.774,0,0,1-7.1,0,3.539,3.539,0,0,1-1.167-2.735A3.414,3.414,0,0,1,438,53.3a5.162,5.162,0,0,1,3.556-1.178,5.059,5.059,0,0,1,3.556,1.178,3.405,3.405,0,0,1,1.167,2.674,3.524,3.524,0,0,1-1.173,2.739" transform="translate(-274.042 -31.497)" fill="#00134c"/>
	<rect id="사각형_551" data-name="사각형 551" width="27.04" height="2.417" transform="translate(154.001 32.649)" fill="#00134c"/>
	<path id="패스_474" data-name="패스 474" d="M513.1,52.324h-5.153V49.713h-4.307v2.611h-5.153V54.74H513.1Z" transform="translate(-315.829 -31.497)" fill="#00134c"/>
	<path id="패스_475" data-name="패스 475" d="M513.785,71.228a4.984,4.984,0,0,0-1.636-3.839,7.7,7.7,0,0,0-9.5-.007,5.025,5.025,0,0,0-1.609,3.846,5.082,5.082,0,0,0,1.606,3.814,7.551,7.551,0,0,0,9.5,0,5.05,5.05,0,0,0,1.64-3.814M509.163,73.4a2.056,2.056,0,0,1-1.739.9,2.033,2.033,0,0,1-1.76-.9,3.622,3.622,0,0,1-.636-2.179,3.541,3.541,0,0,1,.636-2.172,2.034,2.034,0,0,1,1.76-.9,2.058,2.058,0,0,1,1.739.9,3.577,3.577,0,0,1,.643,2.172,3.7,3.7,0,0,1-.643,2.176" transform="translate(-317.445 -41.656)" fill="#00134c"/>
	<path id="패스_476" data-name="패스 476" d="M545.249,49.713v6.61h-1.416v-6.61h-4.3v16.5h4.3V58.735h1.416v8.181h4.322v-17.2Z" transform="translate(-341.83 -31.497)" fill="#00134c"/>
	<path id="패스_477" data-name="패스 477" d="M533.7,98.3a13.067,13.067,0,0,0-12.927,0,4.769,4.769,0,0,0,0,8.025,12.937,12.937,0,0,0,12.924,0,4.73,4.73,0,0,0,0-8.029m-3.235,6.283a5.427,5.427,0,0,1-6.429,0,2.87,2.87,0,0,1-1.059-2.3,2.9,2.9,0,0,1,1.059-2.272,4.752,4.752,0,0,1,3.21-1,4.83,4.83,0,0,1,3.222,1,3.015,3.015,0,0,1,0,4.569" transform="translate(-328.554 -61.197)" fill="#00134c"/>
	<rect id="사각형_552" data-name="사각형 552" width="207.74" height="52.058" fill="none"/>
  </svg>
  