<svg id="그룹_79" data-name="그룹 79" xmlns="http://www.w3.org/2000/svg" width="93.828" height="96.299" viewBox="0 0 93.828 96.299">
  <g id="그룹_79-2" data-name="그룹 79" transform="translate(0 31.355)">
    <path id="패스_284" data-name="패스 284" d="M.044,41.461l.02,3.292H10.821a9.9,9.9,0,0,1-.137,2.7C10.424,49.531,9.007,54.5,0,55.025l0,2.889s15.242.311,16.1-11.626a44.585,44.585,0,0,0,.136-4.829Z" transform="translate(0 -39.375)" fill="#0084cb"/>
    <path id="패스_285" data-name="패스 285" d="M19.821,60.949c-4.777,0-8.653,3.255-8.653,7.269s3.875,7.271,8.653,7.271,8.654-3.257,8.654-7.271S24.6,60.949,19.821,60.949Zm0,10.94a3.689,3.689,0,0,1,0-7.357,3.689,3.689,0,0,1,0,7.357Z" transform="translate(-2.16 -43.145)" fill="#0084cb"/>
    <path id="패스_286" data-name="패스 286" d="M56.443,60.949c-4.777,0-8.654,3.255-8.654,7.269s3.876,7.271,8.654,7.271S65.1,72.233,65.1,68.218,61.222,60.949,56.443,60.949Zm0,10.94a3.689,3.689,0,1,1,3.415-3.68A3.555,3.555,0,0,1,56.443,71.889Z" transform="translate(-9.245 -43.145)" fill="#0084cb"/>
    <path id="패스_287" data-name="패스 287" d="M55.014,41.033H48.926V38.875H43.7v2.158h-6.26v3.16h3.425A6.688,6.688,0,0,0,38.7,49.067c0,3.879,3.446,7.017,7.7,7.017s7.7-3.138,7.7-7.017a6.689,6.689,0,0,0-2.16-4.874h3.078Zm-8.7,10.992a3.04,3.04,0,1,1,2.918-3.038A2.982,2.982,0,0,1,46.312,52.025Z" transform="translate(-7.242 -38.875)" fill="#0084cb"/>
    <path id="패스_288" data-name="패스 288" d="M30.414,41.474H21.78V44.73h5.185v2.295H21.78v3.314h5.185v6.185h5.509V52.217l.016-8.594A1.949,1.949,0,0,0,30.414,41.474Z" transform="translate(-4.213 -39.378)" fill="#0084cb"/>
    <path id="패스_289" data-name="패스 289" d="M65.127,41.474h8.258V44.73H68.578v2.295h4.808v3.314H68.578v6.185H63.071V52.217l-.015-8.594A1.946,1.946,0,0,1,65.127,41.474Z" transform="translate(-12.197 -39.378)" fill="#0084cb"/>
  </g>
  <path id="패스_290" data-name="패스 290" d="M91.754,0H18.187V20.943H29.369V11.178h56.8V85.12h-56.8V75.43H18.187V96.3H97.346V0Z" transform="translate(-3.518)" fill="#0084cb"/>
</svg>
