<svg xmlns="http://www.w3.org/2000/svg" width="153.764" height="33.032" viewBox="0 0 153.764 33.032">
  <rect id="사각형_517" data-name="사각형 517" width="22.236" height="33.032" transform="translate(59.605)" fill="#f16121"/>
  <path id="패스_292" data-name="패스 292" d="M313.83,39.9,312.9,42.83h-13.68V20.95h4.166V39.9Z" transform="translate(-299.217 -12.416)" fill="#1a1818"/>
  <path id="패스_293" data-name="패스 293" d="M313.958,23.336a1.842,1.842,0,0,1-.632,1.363,2.11,2.11,0,0,1-1.53.611,2.728,2.728,0,0,1-1.689-.535,1.645,1.645,0,0,1-.724-1.368,1.845,1.845,0,0,1,.65-1.416,2.321,2.321,0,0,1,1.622-.6,2.383,2.383,0,0,1,1.656.6A1.784,1.784,0,0,1,313.958,23.336ZM313.5,42.493h-3.787V28.187l3.787-1.513Z" transform="translate(-291.48 -12.079)" fill="#1a1818"/>
  <path id="패스_294" data-name="패스 294" d="M341.891,40.221H338.1V30.483a3.194,3.194,0,0,0-.916-2.4,3.682,3.682,0,0,0-2.668-.888q-4.082,0-4.077,3.359v9.666h-3.713V30.7a3.294,3.294,0,0,0-1.025-2.58,3.924,3.924,0,0,0-2.716-.926,4.511,4.511,0,0,0-2.88.858,2.948,2.948,0,0,0-1.085,2.473v9.694h-3.7V25.865l3.7-1.474V26.6a7.024,7.024,0,0,1,1.337-1.037,7.841,7.841,0,0,1,4.067-1.081,6.651,6.651,0,0,1,3.887,1.259A8.7,8.7,0,0,1,329.682,27a7.409,7.409,0,0,1,1.369-1.238,8.446,8.446,0,0,1,4.683-1.28,6.466,6.466,0,0,1,4.482,1.5,4.972,4.972,0,0,1,1.675,3.88Z" transform="translate(-286.958 -9.796)" fill="#1a1818"/>
  <path id="패스_295" data-name="패스 295" d="M347.508,36.411a6.387,6.387,0,0,1-8.244.058,5.286,5.286,0,0,1,.055-7.675,6.342,6.342,0,0,1,8.207-.019,4.747,4.747,0,0,1,1.654,3.66A5.127,5.127,0,0,1,347.508,36.411Zm2.679-9.49a10.076,10.076,0,0,0-6.916-2.483,9.694,9.694,0,0,0-6.659,2.431,7.394,7.394,0,0,0-.021,11.506,9.938,9.938,0,0,0,6.816,2.416,10.046,10.046,0,0,0,6.672-2.36,7.381,7.381,0,0,0,.109-11.51Z" transform="translate(-272.853 -9.761)" fill="#fff"/>
  <path id="패스_296" data-name="패스 296" d="M356.072,26.965l-.975,2.717H352.6v12.57h-3.792V29.683h-2.358l6.151-7.96v5.242Z" transform="translate(-263.26 -11.828)" fill="#1a1818"/>
  <path id="패스_297" data-name="패스 297" d="M357.211,33.6a1.087,1.087,0,0,1-.072-.3,5.036,5.036,0,0,1-.171-1.164,4.781,4.781,0,0,1,1.761-3.649,6,6,0,0,1,4.141-1.582,6.191,6.191,0,0,1,2.663.574,4.29,4.29,0,0,1,1.837,1.525Zm13.627-5.108a9.551,9.551,0,0,0-2.776-2.679,9.966,9.966,0,0,0-5.259-1.374,9.774,9.774,0,0,0-6.668,2.358,7.483,7.483,0,0,0-.023,11.511,9.69,9.69,0,0,0,6.617,2.358A10.261,10.261,0,0,0,368.9,38.8a9.813,9.813,0,0,0,1.874-1.872l-2.631-1.4a8.76,8.76,0,0,1-1.3,1.256,5.979,5.979,0,0,1-3.711,1.3,6.317,6.317,0,0,1-4-1.58c-.194-.166-.433-.393-.724-.682l13.227-5.905C371.366,29.447,371.1,28.978,370.838,28.491Z" transform="translate(-257.954 -9.761)" fill="#1a1818"/>
  <path id="패스_298" data-name="패스 298" d="M380.853,39.277a9.51,9.51,0,0,1-1.518.689,11.62,11.62,0,0,1-4.076.719,9.807,9.807,0,0,1-6.473-2.2,7.349,7.349,0,0,1-2.8-5.9,7.432,7.432,0,0,1,2.726-5.763,9.373,9.373,0,0,1,6.411-2.411,12.832,12.832,0,0,1,4.25.676,14.545,14.545,0,0,1,1.481.652L379.659,28.3a8.658,8.658,0,0,0-1.11-.542,7.337,7.337,0,0,0-2.82-.586,6.008,6.008,0,0,0-4.065,1.532,4.827,4.827,0,0,0-1.767,3.8,4.751,4.751,0,0,0,1.8,3.766,6.219,6.219,0,0,0,4.148,1.532,8.47,8.47,0,0,0,2.809-.439,3.407,3.407,0,0,0,1.006-.47Z" transform="translate(-248.391 -9.779)" fill="#1a1818"/>
  <path id="패스_299" data-name="패스 299" d="M393.539,43.054h-3.788V33.3a2.851,2.851,0,0,0-1.039-2.313,4.35,4.35,0,0,0-2.874-.87,5.647,5.647,0,0,0-3.4.977,2.948,2.948,0,0,0-1.344,2.494v9.467H377.3v-20.9L381.1,20.67v9.1a7.023,7.023,0,0,1,5.75-2.453,8.208,8.208,0,0,1,4.713,1.229,4.405,4.405,0,0,1,1.978,3.9Z" transform="translate(-239.775 -12.629)" fill="#1a1818"/>
</svg>
